<svg width="83" height="16" viewBox="0 0 83 16" fill="none" xmlns="http://www.w3.org/2000/svg">
<path fill-rule="evenodd" clip-rule="evenodd" d="M62.1481 4.01317C62.8399 4.54634 63.1996 5.41625 63.2273 6.60887C63.2273 6.60887 63.2411 7.46475 63.2134 7.54894L63.1581 13.3998V15.7289H60.5017L60.5847 14.9151C59.6162 15.7009 58.3848 16.0937 57.0704 15.9815C56.5447 15.9394 55.9636 15.8412 55.4655 15.6447C55.1334 15.5044 54.7737 15.308 54.4832 15.0835C53.736 14.4942 53.3348 13.6804 53.3071 12.6842C53.2795 11.8283 53.487 11.1128 53.9297 10.5515C54.3586 10.0184 55.0643 9.55535 56.0466 9.19055L58.6062 8.25048C59.7407 7.82956 60.2111 7.53491 60.4048 7.35251C60.6677 7.12801 60.7922 6.8474 60.7784 6.51066C60.7645 6.08973 60.6123 5.79508 60.308 5.61268C59.9621 5.38819 59.4225 5.28997 58.6339 5.28997C58.0666 5.28997 57.4717 5.36013 56.8629 5.51447C56.2264 5.66881 55.5762 5.8933 54.9259 6.17392L54.4555 6.38438L54.746 4.04123C54.746 4.04123 56.7937 3.28356 58.9659 3.26953C60.4325 3.26953 61.484 3.50806 62.1481 4.01317ZM57.7069 13.8909C57.9559 13.8909 58.1911 13.8769 58.4402 13.8488C59.1181 13.7646 60.0451 13.4419 60.1834 13.3577C60.2526 13.3296 60.6815 13.1332 60.6815 13.0771L60.7784 9.4852C60.7645 9.49923 60.7369 9.51326 60.7092 9.52729C60.5017 9.65357 60.2526 9.76581 59.8929 9.92015L57.444 10.8602C56.8214 11.0987 56.3925 11.3513 56.1849 11.6179C55.9636 11.8704 55.8667 12.1932 55.8806 12.586C55.8944 13.0069 56.0466 13.3156 56.3371 13.5401C56.6415 13.7786 57.0981 13.8909 57.7069 13.8909Z" fill="#1FA8E1"/>
<path d="M51.8003 12.9232L51.7864 12.8671L51.4544 13.0354C50.8733 13.316 50.2922 13.5405 49.7111 13.6949C48.8118 13.9334 47.8294 14.0316 46.9301 13.765C46.6257 13.6668 46.3352 13.5265 46.0861 13.3441C45.8371 13.1757 45.6296 12.9653 45.4497 12.7267C44.7302 11.7586 44.578 10.3836 44.6472 9.19098C44.7026 8.26494 44.8963 7.28278 45.4497 6.52511C45.6157 6.30062 45.8371 6.09016 46.0861 5.90776C46.349 5.72536 46.6257 5.58505 46.9301 5.48683C48.203 5.108 49.5312 5.41668 50.7349 5.8376C51.1361 5.97791 51.5927 6.16031 52.1046 6.38481L52.5335 3.98553C51.4267 3.62073 50.2922 3.41027 49.1438 3.29802C48.1338 3.1998 47.11 3.25593 46.1415 3.56461C45.2145 3.85925 44.4397 4.36436 43.8448 5.05188C42.6964 6.37078 42.3643 8.33509 42.4612 10.0609C42.5304 11.4359 42.9316 13.0074 43.7756 14.0877C44.6196 15.1681 45.8786 15.7294 47.1791 15.8697C48.4935 16.024 49.7802 15.8697 51.067 15.5329C51.565 15.4066 52.0493 15.2383 52.5335 15.0559L52.5889 15.0418L52.5612 14.9997C52.1323 14.3263 51.8833 13.6247 51.8003 12.9232Z" fill="#1FA8E1"/>
<path d="M73.3564 3.74693C72.7753 3.59259 72.1804 3.46631 71.5854 3.39616C70.9213 3.31197 70.2295 3.26988 69.4547 3.28391C67.9328 3.31197 66.8536 3.57856 66.1619 4.08367C65.4562 4.61684 65.0827 5.48675 65.0412 6.66534L65.0273 7.60541V13.4422V15.7293H67.7115L67.67 15.3083C67.6284 14.9435 67.5731 13.9333 67.5731 13.9333C67.5593 13.7509 67.5593 13.5685 67.5593 13.3581L67.3932 8.32098C67.3794 7.80184 67.3794 7.25464 67.4347 6.77759C67.4763 6.52503 67.6146 6.13217 67.9743 5.80946C69.3441 4.6449 71.7376 5.76737 71.7376 5.76737C71.7653 5.65512 71.8206 5.52884 71.876 5.4166C72.0697 5.07986 72.3049 4.77118 72.5678 4.47653C72.7891 4.20994 73.0659 3.97142 73.3564 3.74693Z" fill="#1FA8E1"/>
<path fill-rule="evenodd" clip-rule="evenodd" d="M80.8824 3.5498C80.8824 1.48727 80.8271 0.224494 80.8132 0H82.9993V13.638C82.9993 13.9046 82.9301 14.1431 82.8332 14.3536C82.7917 14.4518 82.7364 14.55 82.6672 14.6342C82.4182 14.9709 82.0446 15.2375 81.6572 15.4199C81.588 15.462 81.2836 15.5883 81.2283 15.6023C81.0761 15.6584 80.9239 15.7005 80.7717 15.7426C80.6057 15.7847 80.4397 15.8128 80.2736 15.8408C79.8309 15.911 79.3743 15.9531 78.9316 15.9671C78.5995 15.9671 78.2675 15.9671 77.9354 15.939C77.8641 15.939 77.7064 15.9252 77.5718 15.9134C77.4714 15.9046 77.3839 15.8969 77.3543 15.8969C76.0123 15.7566 74.7117 15.1954 73.8401 14.115C72.9684 13.0347 72.5672 11.4632 72.4842 10.0882C72.3873 8.36239 72.7332 6.39807 73.9092 5.07917C74.518 4.39166 75.3205 3.88654 76.2751 3.5919C77.2713 3.28322 78.3366 3.2271 79.3743 3.32531C79.9139 3.38143 80.3566 3.45159 80.8824 3.5498ZM76.2336 13.3293C76.4965 13.5117 76.787 13.652 77.1053 13.7502C77.6587 13.9046 78.226 13.9467 78.8071 13.8484C78.8071 13.8484 79.6234 13.7923 80.0523 13.5959C80.3566 13.4696 80.8271 13.2171 80.8271 12.8102L80.8132 5.86489C79.5957 5.47203 78.3643 5.10723 77.1053 5.47203C76.8009 5.57025 76.4965 5.71056 76.2336 5.89296C75.9846 6.07536 75.7632 6.28582 75.5833 6.51031C75.0023 7.26798 74.8086 8.25014 74.7532 9.17617C74.684 10.3688 74.8362 11.7438 75.5833 12.7119C75.7632 12.9505 75.9846 13.1609 76.2336 13.3293Z" fill="#1FA8E1"/>
<path d="M22.7055 9.35981C21.9999 8.77051 21.1005 8.39168 20.2981 8.05494C19.1912 7.59192 18.2366 7.19906 18.2366 6.45542C18.2366 6.13271 18.3887 5.83806 18.6516 5.61357C18.9422 5.38908 19.3434 5.2628 19.7723 5.2628C21.1559 5.2628 22.2489 6.25899 22.2627 6.25899L22.5256 6.51154L23.7431 4.18242L23.6048 4.02808C23.5494 3.97196 22.2627 2.625 19.7723 2.625C18.5824 2.625 17.4756 3.01786 16.687 3.71941C15.8707 4.43498 15.4279 5.41714 15.4279 6.48348C15.4279 7.5358 15.8292 8.37765 16.6455 9.06516C17.3372 9.65445 18.1951 10.0193 19.0252 10.3841C20.1597 10.8751 21.142 11.3101 21.142 12.0678C21.142 12.643 20.7546 13.2744 19.6616 13.2744C18.0982 13.2744 16.853 12.0678 16.8392 12.0537L16.604 11.8152L15.082 13.9479L15.2342 14.1163C15.2481 14.1303 15.6493 14.5793 16.3826 15.0142C17.0605 15.4211 18.1674 15.8982 19.634 15.8982C20.9068 15.8982 21.9999 15.5053 22.7746 14.7477C23.5079 14.0461 23.9092 13.064 23.9092 11.9976C23.9368 10.9453 23.5356 10.0613 22.7055 9.35981Z" fill="white"/>
<rect x="35.5586" y="2.82031" width="2.85014" height="12.9084" fill="white"/>
<path fill-rule="evenodd" clip-rule="evenodd" d="M32.6378 8.88004C33.1082 9.11857 33.4956 9.48337 33.7723 9.93236C34.1182 10.4796 34.298 11.153 34.298 11.8406C34.298 13.0753 33.8276 14.0995 32.9283 14.787C32.1397 15.3904 31.0605 15.7131 29.8153 15.7131H25.125V2.80469H29.7599C30.9221 2.80469 31.9183 3.11337 32.6378 3.70266C33.3987 4.32002 33.7999 5.21799 33.7999 6.28434C33.7999 7.35068 33.3849 8.27672 32.6378 8.88004ZM27.8091 13.3138H29.9813C30.9498 13.3138 31.5586 12.6964 31.5586 11.7143C31.5586 11.2793 31.4341 10.9847 31.1435 10.676C30.8668 10.3813 30.4656 10.227 29.9813 10.227H29.0958V7.85579H29.7599C30.6316 7.85579 31.0743 7.42084 31.0743 6.56495C31.0743 5.7231 30.5762 5.23202 29.7184 5.23202H27.8091V13.3138Z" fill="white"/>
<path d="M6.58576 2.59766C2.94699 2.59766 0 5.58623 0 9.29037C0 12.756 2.58726 15.6043 5.90782 15.941V11.0863C5.18836 10.8057 4.69028 10.1042 4.69028 9.29037C4.69028 8.22403 5.53426 7.36814 6.58576 7.36814C7.62344 7.36814 8.48125 8.22403 8.48125 9.29037C8.48125 10.1042 7.96933 10.8057 7.26371 11.0863V15.941C10.5843 15.6043 13.1715 12.756 13.1715 9.29037C13.1577 5.58623 10.2107 2.59766 6.58576 2.59766Z" fill="#1FA8E1"/>
</svg>
