<?xml version="1.0" encoding="UTF-8"?>
<svg width="47px" height="47px" viewBox="0 0 47 47" version="1.1" xmlns="http://www.w3.org/2000/svg" xmlns:xlink="http://www.w3.org/1999/xlink">
    <title>Group 104</title>
    <defs>
        <polygon id="path-1" points="0 0 20.7789797 0 20.7789797 20.7727802 0 20.7727802"></polygon>
    </defs>
    <g id="Page-1" stroke="none" stroke-width="1" fill="none" fill-rule="evenodd">
        <g id="Group-104">
            <g id="Group-10-Copy" fill="#FFFFFF" fill-opacity="0.75">
                <circle id="Oval" cx="23.5" cy="23.5" r="23.5"></circle>
            </g>
            <g id="Group-12" transform="translate(10.000000, 11.000000)">
                <path d="M16.8618,12.014343 C16.4198,12.003343 16.0428,12.370343 16.043798,12.812343 C16.043798,13.243343 16.4038,13.607343 16.8348,13.610343 C17.2668,13.614343 17.6328,13.257343 17.6398,12.825343 C17.6478,12.394343 17.2938,12.025343 16.8618,12.014343" id="Fill-1" fill="#4F5872"></path>
                <path d="M20.0505,12.014343 C19.6195,12.008343 19.2505,12.363343 19.2415,12.794343 C19.2315,13.236343 19.6005,13.612343 20.0415,13.6103509 C20.4735,13.609343 20.8355,13.248343 20.8385083,12.816343 C20.8405,12.385343 20.4825,12.020343 20.0505,12.014343" id="Fill-3" fill="#4F5872"></path>
                <path d="M13.6416,12.0143409 C13.2096,12.015343 12.8476,12.376343 12.8455917,12.808343 C12.8436,13.239343 13.2016,13.604343 13.6326,13.610343 C14.0756,13.617343 14.4476,13.246343 14.4426,12.803343 C14.4376,12.372343 14.0736,12.013343 13.6416,12.0143409" id="Fill-5" fill="#4F5872"></path>
                <path d="M0,8.977143 C0.096,8.438143 0.154,7.890143 0.295,7.363143 C0.966,4.846143 2.459,2.914143 4.692,1.619143 C8.354,-0.503857002 12.089,-0.516857002 15.834,1.449143 C15.897,1.482143 15.957,1.520143 16.018,1.557143 C16.04,1.570143 16.062,1.585143 16.131,1.631143 C15.681,1.687143 15.287,1.719143 14.899,1.787143 C11.263,2.420143 8.319,4.171143 6.429,7.378143 C4.317,10.961143 4.38,14.627143 6.409,18.257143 C6.444,18.319143 6.482,18.379143 6.518,18.440143 C6.526,18.454143 6.527,18.471143 6.53,18.486143 C6.522,18.491143 6.511,18.501143 6.507,18.498143 C6.1,18.243143 5.755,18.425143 5.383,18.619143 C4.039,19.320143 2.684,20.002143 1.33,20.685143 C0.805,20.950143 0.245,20.719143 0.135,20.182143 C0.1,20.010143 0.134,19.809143 0.188,19.637143 C0.659,18.132143 1.138,16.629143 1.625,15.128143 C1.682,14.951143 1.67,14.824143 1.563,14.667143 C0.712,13.410143 0.196,12.028143 0.048,10.514143 C0.041,10.445143 0.016,10.377143 0,10.309143 C0,9.865143 0,9.421143 0,8.977143" id="Fill-7" fill="#424A60"></path>
                <g id="Group-11" transform="translate(6.505020, 3.226963)">
                    <mask id="mask-2" fill="white">
                        <use xlink:href="#path-1"></use>
                    </mask>
                    <g id="Clip-10"></g>
                    <path d="M13.5369797,10.3838822 C13.0949797,10.3848802 12.7259797,10.0098802 12.7359797,9.56788018 C12.7449797,9.13688018 13.1139797,8.78088018 13.5459797,8.78788018 C13.9779797,8.79388018 14.3359797,9.15788018 14.3329797,9.58988018 C14.3299797,10.0218802 13.9679797,10.3828802 13.5369797,10.3838822 M10.3299797,10.3838802 C9.89897973,10.3798802 9.53797973,10.0168802 9.53797973,9.58588018 C9.53797973,9.14388018 9.91497973,8.77588018 10.3569797,8.78788018 C10.7889797,8.79888018 11.1429797,9.16788018 11.1349797,9.59888018 C11.1279797,10.0308802 10.7619797,10.3878802 10.3299797,10.3838802 M7.12797973,10.3838802 C6.69697973,10.3778802 6.33797973,10.0128802 6.33997142,9.58088018 C6.34297973,9.14988018 6.70497973,8.78888018 7.13697973,8.78787187 C7.56897973,8.78588018 7.93297973,9.14488018 7.93697973,9.57688018 C7.94197973,10.0188802 7.56997973,10.3898802 7.12797973,10.3838802 M19.1489797,15.0698802 C19.0979797,14.9118802 19.1119797,14.7968802 19.2069797,14.6558802 C21.8039797,10.8078802 21.1259797,5.71388018 17.6009797,2.68588018 C14.9999797,0.451880183 11.9769797,-0.375119817 8.60497973,0.154880183 C5.68197973,0.614880183 3.31197973,2.03488018 1.59897973,4.47188018 C-0.742020266,7.80188018 -0.486020266,12.4148802 2.19297973,15.4798802 C4.12897973,17.6948802 6.58397973,18.8758802 9.49897973,19.1318802 C11.2559797,19.2858802 12.9469797,19.0028802 14.5859797,18.3658802 C14.6819797,18.3288802 14.8209797,18.3078802 14.9039797,18.3498802 C16.4939797,19.1508802 18.0789797,19.9628802 19.6639797,20.7728802 L20.0899797,20.7728802 C20.6919797,20.4138802 20.7809797,20.1678802 20.5599797,19.4748802 C20.0909797,18.0068802 19.6229797,16.5368802 19.1489797,15.0698802" id="Fill-9" fill="#FFFFFF" mask="url(#mask-2)"></path>
                </g>
            </g>
        </g>
    </g>
</svg>