<svg width="34" height="34" viewBox="0 0 34 34" fill="currentColor" xmlns="http://www.w3.org/2000/svg">
<path d="M21.7218 33.3092C21.7218 33.2392 21.7018 33.1692 21.7018 33.0992C21.7018 29.0592 21.7018 25.0192 21.7018 20.9792C21.7018 20.7992 21.7618 20.7492 21.9418 20.7492C23.0118 20.7492 24.0718 20.7492 25.1418 20.7492C25.3118 20.7492 25.3818 20.7092 25.4018 20.5292C25.5218 19.5192 25.6618 18.5192 25.7918 17.5092C25.8218 17.2492 25.8618 16.9892 25.9018 16.7292C25.9318 16.5092 25.9218 16.4892 25.6918 16.4892C24.4518 16.4892 23.2118 16.4892 21.9718 16.4892C21.7118 16.4892 21.7118 16.4892 21.7118 16.2292C21.7118 15.3492 21.7018 14.4792 21.7218 13.5992C21.7218 13.2692 21.7918 12.9392 21.9018 12.6292C22.0718 12.1492 22.4718 11.8992 22.9418 11.8092C23.2618 11.7492 23.5918 11.7292 23.9118 11.7192C24.5618 11.7092 25.2018 11.7192 25.8518 11.7192C26.0018 11.7192 26.0518 11.6792 26.0418 11.5292C26.0418 10.3792 26.0418 9.23917 26.0418 8.08917C26.0418 7.94917 25.9918 7.89917 25.8618 7.89917C24.7918 7.85917 23.7218 7.77917 22.6518 7.76917C21.4518 7.75917 20.3218 8.04917 19.3318 8.76917C18.4718 9.39917 17.9218 10.2492 17.6118 11.2592C17.3918 11.9792 17.3218 12.7192 17.3218 13.4692C17.3218 14.3892 17.3218 15.3092 17.3218 16.2292C17.3218 16.4158 17.2285 16.5092 17.0418 16.5092C16.0018 16.5092 14.9618 16.5092 13.9218 16.5092C13.6718 16.5092 13.6718 16.5092 13.6718 16.7592C13.6718 18.0092 13.6718 19.2492 13.6718 20.4992C13.6718 20.7592 13.6718 20.7592 13.9318 20.7592C14.9818 20.7592 16.0418 20.7592 17.0918 20.7592C17.2718 20.7592 17.3218 20.8092 17.3218 20.9892C17.3218 25.2392 17.3218 29.4992 17.3218 33.7492C17.3218 33.9392 17.2618 33.9892 17.0718 33.9892C15.9618 33.9892 14.8618 33.8792 13.7718 33.6692C11.5118 33.2392 9.43183 32.3692 7.52183 31.0792C5.56183 29.7592 3.94183 28.0892 2.67183 26.0992C1.61183 24.4392 0.871829 22.6592 0.431829 20.7392C0.0218293 18.9492 -0.0981707 17.1292 0.0918293 15.2992C0.401829 12.2692 1.44183 9.51917 3.23183 7.04917C5.08183 4.49917 7.46183 2.59917 10.3618 1.34917C11.8518 0.709166 13.4118 0.309166 15.0218 0.119166C16.6018 -0.0708339 18.1718 -0.0308339 19.7418 0.219166C21.8018 0.549166 23.7518 1.23917 25.5518 2.30917C28.8318 4.24917 31.2118 6.96917 32.7018 10.4692C33.3218 11.9192 33.7018 13.4392 33.8918 15.0092C34.0618 16.4292 34.0518 17.8492 33.8618 19.2592C33.4318 22.4092 32.2218 25.2292 30.2218 27.6992C28.7818 29.4792 27.0418 30.9092 25.0118 31.9992C23.9918 32.5492 22.9318 32.9692 21.8218 33.3092C21.8018 33.3092 21.7718 33.3092 21.7318 33.3192L21.7218 33.3092Z"/>
</svg>
