<svg width="34" height="34" viewBox="0 0 34 34" fill="currentColor" xmlns="http://www.w3.org/2000/svg">
<path d="M17.02 0C7.62 0 0 7.61 0 16.98C0 26.38 7.63 34 16.99 34C26.35 34.02 33.99 26.4 34 17.03C34.01 7.65 26.41 0 17.02 0ZM26.75 19.56C26.75 20.34 26.72 21.12 26.62 21.89C26.37 23.87 25.4 25.37 23.53 26.2C22.79 26.53 22 26.68 21.19 26.7C19.3 26.74 17.4 26.76 15.51 26.76C14.61 26.76 13.71 26.74 12.82 26.7C11.75 26.65 10.71 26.43 9.79 25.85C8.73 25.19 8.02 24.26 7.64 23.08C7.43 22.42 7.32 21.73 7.31 21.04C7.29 18.78 7.26 16.52 7.26 14.26C7.26 13.55 7.3 12.82 7.39 12.12C7.63 10.21 8.54 8.74 10.32 7.89C11.1 7.52 11.93 7.35 12.79 7.32C14.2 7.27 15.61 7.25 17.01 7.22C18.42 7.25 19.83 7.27 21.23 7.32C22.34 7.36 23.41 7.61 24.35 8.24C25.42 8.95 26.11 9.94 26.45 11.18C26.75 12.25 26.75 13.35 26.76 14.45C26.78 16.16 26.78 17.86 26.76 19.57L26.75 19.56Z"/>
<path d="M24.7117 11.5213C24.4017 10.5413 23.8017 9.84127 22.8517 9.43127C22.1717 9.14127 21.4517 9.05127 20.7317 9.05127C18.5717 9.03127 16.4217 9.02127 14.2617 9.03127C13.4217 9.03127 12.5717 9.03127 11.7417 9.24127C10.5017 9.56127 9.66174 10.3213 9.28174 11.5613C9.09174 12.1713 9.04174 12.8013 9.03174 13.4313C9.01174 15.4613 9.00174 17.5013 9.01174 19.5313C9.01174 20.4513 9.00173 21.3713 9.23173 22.2613C9.55173 23.5013 10.3017 24.3313 11.5317 24.7113C12.1517 24.9013 12.7917 24.9613 13.4417 24.9613C14.6217 24.9713 15.8117 24.9613 16.9917 24.9613C16.9917 24.9613 16.9917 24.9713 16.9917 24.9813C17.8617 24.9813 18.7417 24.9913 19.6117 24.9813C20.4917 24.9713 21.3717 24.9813 22.2417 24.7613C23.2817 24.5013 24.0517 23.9213 24.5217 22.9413C24.8417 22.2713 24.9417 21.5413 24.9517 20.8113C24.9717 18.2713 24.9617 15.7213 24.9517 13.1813C24.9517 12.6213 24.8717 12.0513 24.7017 11.5113L24.7117 11.5213ZM17.0017 22.0113C14.2317 22.0113 11.9917 19.7613 11.9917 16.9913C11.9917 14.2213 14.2517 11.9813 17.0117 11.9913C19.7917 12.0013 22.0217 14.2513 22.0117 17.0213C22.0017 19.7913 19.7617 22.0113 17.0017 22.0113ZM22.2017 12.9613C21.5517 12.9613 21.0417 12.4413 21.0517 11.7913C21.0517 11.1413 21.5717 10.6313 22.2217 10.6313C22.8717 10.6313 23.3817 11.1513 23.3817 11.8013C23.3817 12.4513 22.8617 12.9613 22.2017 12.9613Z"/>
<path d="M16.9983 13.75C15.2083 13.75 13.7383 15.21 13.7383 17C13.7383 18.79 15.1983 20.26 16.9883 20.26C18.7783 20.26 20.2383 18.8 20.2483 17.01C20.2483 15.22 18.7883 13.75 16.9983 13.75Z"/>
</svg>
