<svg width="34" height="34" viewBox="0 0 34 34" fill="currentColor" xmlns="http://www.w3.org/2000/svg">
<path d="M17 0C7.61 0 0 7.61 0 17C0 26.39 7.61 34 17 34C26.39 34 34 26.39 34 17C34 7.61 26.39 0 17 0ZM12.06 25.48C12.06 25.6333 11.9833 25.71 11.83 25.71C10.59 25.71 9.35 25.71 8.11 25.71C7.95 25.71 7.9 25.66 7.9 25.5C7.9 21.49 7.9 17.48 7.9 13.46C7.9 13.23 7.9 13.23 8.14 13.23C9.36 13.23 10.57 13.23 11.79 13.23C11.9633 13.23 12.05 13.3167 12.05 13.49C12.05 15.48 12.05 17.47 12.05 19.47C12.05 21.47 12.05 23.48 12.05 25.48H12.06ZM10.43 11.5C9.85 11.58 9.29 11.53 8.77 11.25C8.04 10.86 7.7 10.22 7.68 9.54C7.67 8.33 8.4 7.47 9.45 7.29C10.16 7.17 10.83 7.23 11.43 7.64C12.13 8.13 12.39 8.83 12.31 9.66C12.2 10.67 11.4 11.36 10.43 11.5ZM26.8 25.71C25.55 25.71 24.3 25.71 23.05 25.71C22.89 25.71 22.85 25.66 22.85 25.51C22.85 23.28 22.85 21.05 22.85 18.82C22.85 18.29 22.75 17.78 22.54 17.3C22.15 16.44 21.34 16.13 20.51 16.23C19.47 16.36 18.86 17 18.57 17.97C18.49 18.25 18.5 18.56 18.5 18.85C18.5 20.66 18.5 22.47 18.5 24.28C18.5 24.69 18.5 25.1 18.5 25.51C18.5 25.65 18.47 25.71 18.31 25.71C17.05 25.71 15.79 25.71 14.53 25.71C14.39 25.71 14.35 25.67 14.35 25.53C14.36 22.31 14.37 19.09 14.38 15.87C14.38 15.07 14.37 14.26 14.36 13.46C14.36 13.24 14.36 13.24 14.57 13.24C15.81 13.24 17.05 13.24 18.29 13.24C18.5 13.24 18.5 13.24 18.5 13.46C18.5 13.88 18.5 14.3 18.5 14.72C18.5 14.78 18.5 14.83 18.51 14.89C18.53 14.89 18.54 14.9 18.56 14.91C18.59 14.87 18.63 14.83 18.66 14.79C19.37 13.74 20.35 13.13 21.62 12.99C22.68 12.87 23.69 13.01 24.64 13.53C25.6 14.05 26.21 14.88 26.59 15.89C26.92 16.76 27.02 17.68 27.01 18.6C27.01 20.91 27.01 23.21 27.01 25.52C27.01 25.67 26.97 25.72 26.81 25.72L26.8 25.71Z"/>
</svg>
