<svg width="34" height="34" viewBox="0 0 34 34" fill="currentColor" xmlns="http://www.w3.org/2000/svg">
<path d="M17.01 0C7.62 0 0 7.61 0 17C0 26.37 7.61 34 16.99 34C26.37 34 34 26.38 34 17C34 7.62 26.39 0 17.01 0ZM26.48 26.97C24.71 26.97 22.95 26.97 21.18 26.97C21.01 26.97 20.91 26.91 20.81 26.77C19.14 24.33 17.46 21.89 15.79 19.45C15.74 19.38 15.69 19.32 15.63 19.23C15.56 19.3 15.5 19.36 15.45 19.42C13.35 21.86 11.25 24.3 9.16 26.74C9.02 26.9 8.89 26.97 8.67 26.96C8.22 26.94 7.77 26.96 7.27 26.96C7.36 26.84 7.41 26.77 7.47 26.7C9.88 23.9 12.28 21.1 14.69 18.31C14.83 18.14 14.83 18.04 14.71 17.86C12.29 14.35 9.88 10.84 7.47 7.33C7.41 7.24 7.35 7.14 7.26 7.01C7.39 7.01 7.48 6.99 7.57 6.99C9.31 6.99 11.06 6.99 12.8 6.99C12.99 6.99 13.1 7.05 13.21 7.21C14.79 9.51 16.37 11.81 17.95 14.12C17.99 14.18 18.04 14.24 18.1 14.33C18.17 14.26 18.23 14.2 18.29 14.13C20.26 11.85 22.22 9.56 24.18 7.27C24.35 7.07 24.52 6.97 24.78 6.99C25.14 7.01 25.5 6.99 25.85 6.99C25.92 6.99 25.99 7 26.11 7.01C26.03 7.11 25.99 7.16 25.94 7.22C23.63 9.9 21.33 12.59 19.01 15.27C18.88 15.42 18.89 15.51 19 15.66C21.51 19.3 24.01 22.94 26.51 26.59C26.58 26.7 26.65 26.8 26.76 26.96C26.63 26.96 26.56 26.97 26.48 26.97Z"/>
<path d="M19.3094 18.4391C16.9894 15.1191 14.6694 11.7991 12.3494 8.46906C12.2694 8.34906 12.1894 8.28906 12.0394 8.28906C11.2994 8.28906 10.5594 8.28906 9.82938 8.28906C9.76938 8.28906 9.70938 8.29906 9.60938 8.30906C9.68937 8.41906 9.73938 8.50906 9.78938 8.58906C12.1794 12.0091 14.5694 15.4291 16.9694 18.8591C18.5294 21.0891 20.0794 23.3091 21.6394 25.5291C21.6994 25.6191 21.8194 25.7191 21.9094 25.7191C22.6894 25.7391 23.4594 25.7191 24.2394 25.7191C24.2794 25.7191 24.3094 25.7091 24.3894 25.6891C24.3094 25.5691 24.2494 25.4791 24.1894 25.3991C22.5694 23.0691 20.9394 20.7491 19.3194 18.4191L19.3094 18.4391Z"/>
</svg>
