<svg width="34" height="34" viewBox="0 0 34 34" fill="currentColor" xmlns="http://www.w3.org/2000/svg">
<path d="M17 0C7.61 0 0 7.61 0 17C0 26.39 7.61 34 17 34C26.39 34 34 26.39 34 17C34 7.61 26.39 0 17 0ZM25.95 19.96C25.95 21.49 25.05 22.73 23.63 23.23C23.23 23.37 22.81 23.4 22.39 23.4C20.59 23.4 18.8 23.4 17 23.4C15.2 23.4 13.4 23.4 11.59 23.4C10.93 23.4 10.3 23.28 9.74 22.94C8.64 22.27 8.07 21.28 8.05 20C8.03 18.01 8.03 16.01 8.05 14.02C8.05 12.52 8.95 11.27 10.38 10.8C10.75 10.68 11.15 10.63 11.54 10.63C15.18 10.62 18.82 10.62 22.46 10.63C23.94 10.63 25.02 11.31 25.66 12.65C25.87 13.09 25.95 13.57 25.95 14.06C25.95 16.03 25.95 18 25.95 19.97V19.96Z"/>
<path d="M14.6602 19.7395C16.2402 18.8295 17.7702 17.9295 19.3602 17.0095C17.7702 16.0795 16.2302 15.1895 14.6602 14.2695V19.7395Z"/>
</svg>
