<?xml version="1.0" encoding="UTF-8"?>
<svg width="47px" height="47px" viewBox="0 0 47 47" version="1.1" xmlns="http://www.w3.org/2000/svg" xmlns:xlink="http://www.w3.org/1999/xlink">
    <title>Group 102 Copy 8</title>
    <defs>
        <polygon id="path-1" points="0 0 28 0 28 28 0 28"></polygon>
    </defs>
    <g id="Page-1" stroke="none" stroke-width="1" fill="none" fill-rule="evenodd">
        <g id="Group-102-Copy-8">
            <g id="Group-10-Copy-2" fill="#FFFFFF" fill-opacity="0.75">
                <circle id="Oval" cx="23.5" cy="23.5" r="23.5"></circle>
            </g>
            <g id="Group-6" transform="translate(10.000000, 9.000000)">
                <g id="Group-3">
                    <mask id="mask-2" fill="white">
                        <use xlink:href="#path-1"></use>
                    </mask>
                    <g id="Clip-2"></g>
                    <path d="M16.2555169,25.3179539 C13.3203235,25.9192234 10.5425943,25.4125851 7.96448798,23.8780439 C7.72588114,23.7360089 7.51773225,23.7063449 7.2538418,23.7780085 C5.97266774,24.1258708 4.68714255,24.4576381 3.40308734,24.794692 C3.36680829,24.804208 3.32929445,24.8091422 3.24297734,24.8256484 C3.6064735,23.4960533 3.95021317,22.2061082 4.31723728,20.9228008 C4.39467573,20.6519476 4.35210516,20.4531104 4.20393138,20.2216134 C2.85678471,18.1164653 2.22939808,15.8067822 2.38333418,13.3159428 C2.59230626,9.93342013 4.02065452,7.13607197 6.63739181,4.98152296 C8.92773518,3.09571251 11.5903946,2.24784969 14.5516947,2.37220368 C19.9057075,2.59706297 24.4858651,6.65257752 25.3861972,11.9455818 C26.447345,18.1841933 22.4652333,24.0459834 16.2555169,25.3179539 L16.2555169,25.3179539 Z M7.05116123,26.2847666 C7.19286711,26.2484061 7.38225908,26.2729597 7.51373391,26.3395716 C10.1723362,27.6870826 12.9767603,28.195953 15.9288878,27.7619182 C19.7604149,27.1985364 22.9059327,25.3832735 25.1544111,22.2459344 C28.4804422,17.605069 28.9236112,12.5879697 26.3107546,7.51847373 C23.9247451,2.88923906 19.9462789,0.402511557 14.7326196,0.0350299287 C11.6636583,-0.181253216 8.80778498,0.606165458 6.26225342,2.33719424 C2.49064258,4.90198809 0.392983927,8.4875773 0.0411299854,13.0370421 C-0.169488467,15.7604358 0.432614535,18.3336883 1.75518317,20.7334209 C1.81698105,20.8454981 1.83038725,21.0159048 1.79875332,21.1423147 C1.63799652,21.7856425 1.45477846,22.4234487 1.27973348,23.063252 C0.873666744,24.5472763 0.46777641,26.0313006 0.0511846351,27.5542699 C-0.0202562973,27.8155484 0.217703747,28.0563852 0.480124225,27.9883635 L7.05116123,26.2847666 Z" id="Fill-1" fill="#424A60" mask="url(#mask-2)"></path>
                </g>
                <path d="M20.8115198,17.1352142 C19.8360423,16.643731 18.8503339,16.1712798 17.8563935,15.7180368 C17.5160642,15.5628439 17.3720652,15.6436711 17.1308124,15.9487114 C16.7855439,16.3853895 16.430456,16.8143139 16.0813068,17.2479375 C15.8962072,17.4779072 15.6732997,17.5213166 15.4022946,17.4136449 C13.3193357,16.5859889 11.7224692,15.1967133 10.5830598,13.2720166 C10.4311229,13.0154373 10.4577001,12.8089639 10.6439757,12.5802864 C10.9397353,12.2172104 11.212328,11.8351611 11.4923294,11.459397 C11.6664336,11.2257853 11.6714903,10.9840675 11.5563029,10.7153289 C11.2142684,9.91751316 10.8707639,9.11963865 10.5588346,8.30983978 C10.3463345,7.75814741 10.0611,7.36857929 9.43982849,7.53017487 C8.9239838,7.4711405 8.49680818,7.54491878 8.14395466,7.89025518 C7.0303581,8.97995334 6.65598409,10.2885192 6.99249146,11.7993292 C7.22856994,12.8593046 7.79068954,13.7592704 8.41307823,14.6314519 C10.3926683,17.4056562 12.8639953,19.5129777 16.217074,20.4470131 C17.1433366,20.7050609 18.0755378,20.7989285 18.9762228,20.4221071 C20.5685618,19.7559291 21.0033225,19.0411727 21.0292422,17.5639036 C21.0317813,17.4182855 20.9295884,17.1947185 20.8115198,17.1352142" id="Fill-4" fill="#424A60"></path>
            </g>
        </g>
    </g>
</svg>