<?xml version="1.0" encoding="UTF-8"?>
<svg width="47px" height="47px" viewBox="0 0 47 47" version="1.1" xmlns="http://www.w3.org/2000/svg" xmlns:xlink="http://www.w3.org/1999/xlink">
    <title>Group 103</title>
    <defs>
        <polygon id="path-1" points="0 0 10.7525712 0 10.7525712 13.088755 0 13.088755"></polygon>
    </defs>
    <g id="Page-1" stroke="none" stroke-width="1" fill="none" fill-rule="evenodd">
        <g id="Group-103">
            <g id="Group-10" fill="#FFFFFF" fill-opacity="0.75">
                <circle id="Oval" cx="23.5" cy="23.5" r="23.5"></circle>
            </g>
            <g id="Group-20" transform="translate(12.000000, 12.000000)">
                <path d="M22.2118033,11.3327503 C22.2118033,17.5914535 17.2393239,22.6655006 11.1059017,22.6655006 C4.97247942,22.6655006 0,17.5914535 0,11.3327503 C0,5.07404705 4.97247942,0 11.1059017,0 C17.2393239,0 22.2118033,5.07404705 22.2118033,11.3327503" id="Fill-1" fill="#D5D5EA"></path>
                <path d="M22.2118033,11.3327503 C22.2118033,17.5914535 17.2393239,22.6655006 11.1059017,22.6655006 C4.97247942,22.6655006 0,17.5914535 0,11.3327503 C0,5.07404705 4.97247942,0 11.1059017,0 C17.2393239,0 22.2118033,5.07404705 22.2118033,11.3327503 Z" id="Stroke-3" stroke="#00B1F2" stroke-width="1.23892105"></path>
                <path d="M17.079525,11.3327503 C17.079525,17.5914535 14.40554,22.6655006 11.1061479,22.6655006 C7.80675575,22.6655006 5.13153967,17.5914535 5.13153967,11.3327503 C5.13153967,5.07404705 7.80675575,0 11.1061479,0 C14.40554,0 17.079525,5.07404705 17.079525,11.3327503 Z" id="Stroke-5" stroke="#00B1F2" stroke-width="1.23892105"></path>
                <line x1="22.2118033" y1="11.3327503" x2="0" y2="11.3327503" id="Stroke-7" stroke="#00B1F2" stroke-width="1.23892105"></line>
                <line x1="20.7814922" y1="5.83810633" x2="1.42957244" y2="5.83810633" id="Stroke-9" stroke="#00B1F2" stroke-width="1.23892105"></line>
                <line x1="11.1898638" y1="22.6656262" x2="11.1898638" y2="0.00012562632" id="Stroke-11" stroke="#00B1F2" stroke-width="1.23892105"></line>
                <line x1="20.8655775" y1="16.8275199" x2="1.34622586" y2="16.8275199" id="Stroke-13" stroke="#00B1F2" stroke-width="1.23892105"></line>
                <path d="M14.0097096,13.5728627 L25.4233057,19.646966 L21.7527177,21.3228709 L24.238388,24.9453085 L20.9905981,27.2653665 L18.5168912,23.6600181 L15.6990142,26.5859978 L14.0097096,13.5728627 Z" id="Fill-15" stroke="#FFFFFF" fill="#FFB751"></path>
                <g id="Group-19" transform="translate(14.247429, 13.911245)">
                    <mask id="mask-2" fill="white">
                        <use xlink:href="#path-1"></use>
                    </mask>
                    <g id="Clip-18"></g>
                    <path d="M0,0 L0.155120675,1.19847509 L1.42563287,10.9822529 L1.59060248,12.25736 L2.4745441,11.3402879 L4.29536536,9.44961177 L6.43873913,12.5739383 L6.79206956,13.0890062 L7.29682731,12.7284587 L9.22598682,11.3490817 L9.73074457,10.9897904 L9.37741414,10.4747225 L7.22296032,7.33532081 L9.59285952,6.25242193 L10.7525712,5.72227886 L9.62609967,5.12304132 L1.05014235,0.559037123 L0,0 Z M0.765754444,1.11556172 L9.34048065,5.67956591 L6.29100516,7.0727618 L8.87265639,10.8352701 L6.94349688,12.2133908 L4.37415681,8.47098274 L2.03503552,10.8993395 L0.765754444,1.11556172 Z" id="Fill-17" fill="#FFFFFF" mask="url(#mask-2)"></path>
                </g>
            </g>
        </g>
    </g>
</svg>