<svg width="114" height="38" viewBox="0 0 114 38" fill="none" xmlns="http://www.w3.org/2000/svg">
<path d="M8.04545 37.1655C7.7552 37.1655 7.47195 37.1618 7.18397 37.1553C6.58739 37.1476 5.99221 37.0958 5.4033 37.0004C4.85417 36.9061 4.32222 36.7307 3.82498 36.4799C3.3323 36.2312 2.88293 35.9051 2.4941 35.5141C2.09964 35.1277 1.77123 34.6796 1.5219 34.1875C1.26981 33.6921 1.09535 33.1612 1.0046 32.6131C0.906591 32.0242 0.853566 31.4288 0.845978 30.8319C0.839938 30.6315 0.832031 29.9644 0.832031 29.9644V8.01897C0.832031 8.01897 0.840453 7.36214 0.846026 7.16916C0.853291 6.57321 0.906008 5.97868 1.00372 5.3907C1.09464 4.84115 1.26924 4.30868 1.52146 3.81171C1.76988 3.31991 2.09646 2.87144 2.48855 2.48367C2.88019 2.09221 3.33099 1.76445 3.82451 1.51232C4.32061 1.26236 4.85156 1.08817 5.39957 0.995581C5.99042 0.899219 6.58766 0.847121 7.18631 0.839724L8.04592 0.828125H105.95L106.82 0.84019C107.413 0.847219 108.005 0.898852 108.59 0.99465C109.144 1.0884 109.68 1.26381 110.182 1.51511C111.171 2.02321 111.975 2.82707 112.483 3.81403C112.731 4.30756 112.903 4.83569 112.993 5.3805C113.092 5.9733 113.147 6.57251 113.158 7.17334C113.161 7.44238 113.161 7.73137 113.161 8.01897C113.169 8.37522 113.169 8.71431 113.169 9.05617V28.9383C113.169 29.2835 113.169 29.6203 113.161 29.9598C113.161 30.2687 113.161 30.5517 113.157 30.843C113.146 31.4331 113.092 32.0216 112.995 32.6038C112.906 33.1558 112.732 33.6909 112.48 34.1903C112.229 34.6771 111.903 35.1214 111.513 35.5067C111.123 35.8998 110.673 36.2278 110.179 36.4781C109.679 36.7308 109.143 36.9069 108.59 37.0004C108.002 37.0963 107.406 37.1481 106.81 37.1553C106.531 37.1618 106.238 37.1655 105.955 37.1655L104.922 37.1674L8.04545 37.1655Z" fill="black"/>
<path d="M23.5969 19.2847C23.6177 17.6731 24.465 16.1844 25.8419 15.3403C24.9694 14.0976 23.5602 13.3379 22.0397 13.2905C20.4399 13.123 18.889 14.2451 18.0738 14.2451C17.2428 14.2451 15.9877 13.3071 14.6361 13.3348C12.8578 13.3921 11.2401 14.3759 10.3749 15.9263C8.53246 19.1073 9.90677 23.7823 11.6717 26.3535C12.5547 27.6126 13.5867 29.019 14.9371 28.9692C16.2585 28.9145 16.752 28.1289 18.3471 28.1289C19.9273 28.1289 20.3903 28.9692 21.7681 28.9375C23.186 28.9145 24.0794 27.6728 24.9314 26.4018C25.5659 25.5046 26.0541 24.5131 26.378 23.4639C24.6939 22.7536 23.5989 21.1081 23.5969 19.2847Z" fill="white"/>
<path d="M20.9913 11.6012C21.7644 10.6757 22.1453 9.48617 22.0531 8.28516C20.872 8.40887 19.7809 8.97179 18.9973 9.86178C18.2236 10.7399 17.8316 11.8886 17.9078 13.0551C19.1048 13.0674 20.2413 12.5315 20.9913 11.6012Z" fill="white"/>
<path fill-rule="evenodd" clip-rule="evenodd" d="M35.7937 25.7803H40.303L41.385 28.9689H43.3276L39.0564 17.1719H37.072L32.8008 28.9689H34.7108L35.7937 25.7803ZM39.8361 24.3116H36.2617L38.0248 19.1367H38.0741L39.8361 24.3116Z" fill="white"/>
<path fill-rule="evenodd" clip-rule="evenodd" d="M48.951 29.0638C51.1159 29.0638 52.5505 27.3466 52.5505 24.6738C52.5505 22.0084 51.1075 20.2829 48.9184 20.2828C47.792 20.2466 46.7368 20.8308 46.1721 21.8034H46.1395V20.3728H44.4258V31.8192H46.1962V27.559H46.2372C46.7779 28.5377 47.832 29.1222 48.951 29.0638ZM48.454 21.7891C49.8309 21.7891 50.7333 22.9339 50.7333 24.6752C50.7333 26.4324 49.8309 27.5688 48.454 27.5688C47.1013 27.5688 46.1914 26.4082 46.1914 24.6752C46.1914 22.958 47.1013 21.7891 48.454 21.7891Z" fill="white"/>
<path fill-rule="evenodd" clip-rule="evenodd" d="M58.4432 29.0638C60.6081 29.0638 62.0426 27.3466 62.0426 24.6738C62.0426 22.0084 60.5997 20.2828 58.4106 20.2828C57.2842 20.2466 56.229 20.8308 55.6642 21.8034H55.6316V20.3728H53.918V31.8192H55.6884V27.559H55.7294C56.2701 28.5377 57.3241 29.1222 58.4432 29.0638ZM57.9462 21.7891C59.3231 21.7891 60.2255 22.9339 60.2255 24.6752H60.2255C60.2255 26.4324 59.3231 27.5688 57.9462 27.5688C56.5935 27.5688 55.6836 26.4082 55.6836 24.6752C55.6836 22.958 56.5935 21.7891 57.9462 21.7891Z" fill="white"/>
<path d="M68.3162 25.6834C68.4474 26.8532 69.5871 27.6214 71.1445 27.6214C72.6367 27.6214 73.7103 26.8532 73.7103 25.7984C73.7103 24.8827 73.0628 24.3344 71.5296 23.9587L69.9964 23.5904C67.8241 23.0671 66.8156 22.054 66.8156 20.4101C66.8156 18.3747 68.5944 16.9766 71.1203 16.9766C73.6201 16.9766 75.3338 18.3747 75.3915 20.4101H73.6043C73.4973 19.2328 72.5213 18.5222 71.0951 18.5222C69.6689 18.5222 68.693 19.2412 68.693 20.2876C68.693 21.1217 69.3163 21.6124 70.8412 21.9881L72.1446 22.3073C74.5718 22.8797 75.5803 23.852 75.5803 25.5775C75.5803 27.7846 73.8173 29.1669 71.0133 29.1669C68.3897 29.1669 66.6183 27.8171 66.5039 25.6833L68.3162 25.6834Z" fill="white"/>
<path d="M79.404 18.332V20.3675H81.0442V21.7656H79.404V26.5072C79.404 27.2438 79.7324 27.5871 80.4534 27.5871C80.6481 27.5837 80.8425 27.5701 81.0358 27.5462V28.936C80.7116 28.9964 80.3822 29.0237 80.0524 29.0176C78.3062 29.0176 77.6252 28.3636 77.6252 26.6955V21.7656H76.3711V20.3675H77.6252V18.332H79.404Z" fill="white"/>
<path fill-rule="evenodd" clip-rule="evenodd" d="M86.0829 20.2617C83.5905 20.2617 81.9922 21.9623 81.9922 24.6684C81.9922 27.3821 83.5747 29.0752 86.0829 29.0752C88.592 29.0752 90.1745 27.3821 90.1745 24.6684C90.1745 21.9622 88.5836 20.2617 86.0829 20.2617ZM86.0836 21.7148C87.5182 21.7148 88.3714 22.8105 88.3714 24.6669H88.3713C88.3713 26.5307 87.5182 27.618 86.0836 27.618C84.6491 27.618 83.7969 26.5307 83.7969 24.6669C83.7969 22.8188 84.6491 21.7148 86.0836 21.7148Z" fill="white"/>
<path d="M91.6367 20.3728H93.3253V21.8367H93.3663C93.6017 20.8943 94.4677 20.2457 95.4409 20.2828C95.6449 20.282 95.8484 20.3041 96.0475 20.3486V22C95.7899 21.9215 95.5212 21.8855 95.252 21.8933C94.7315 21.8723 94.2278 22.0791 93.8731 22.4596C93.5184 22.84 93.3482 23.356 93.4072 23.8722V28.9737H91.6367L91.6367 20.3728Z" fill="white"/>
<path fill-rule="evenodd" clip-rule="evenodd" d="M100.496 29.0752C102.447 29.0752 103.972 28.0036 104.21 26.4423L102.529 26.4423C102.206 27.2403 101.396 27.7323 100.537 27.652C99.8929 27.6757 99.2696 27.4222 98.8257 26.9561C98.3817 26.49 98.16 25.8561 98.2169 25.2158V25.1091H104.309V24.5042C104.309 21.8964 102.808 20.2617 100.422 20.2617C97.9954 20.2617 96.4297 22.0114 96.4297 24.7093C96.4297 27.3988 97.9871 29.0752 100.496 29.0752ZM102.535 23.8748L98.2227 23.8748C98.2212 23.2941 98.4523 22.7369 98.8648 22.327C99.2773 21.9171 99.8369 21.6884 100.419 21.6919C100.997 21.6795 101.554 21.908 101.955 22.3224C102.357 22.7368 102.567 23.2995 102.535 23.8748Z" fill="white"/>
<path fill-rule="evenodd" clip-rule="evenodd" d="M38.0474 9.07248C37.5293 8.52687 36.7931 8.24172 36.0415 8.2955H33.9883V13.964H36.0415C37.7348 13.964 38.7163 12.923 38.7163 11.1121C38.811 10.3666 38.5656 9.61809 38.0474 9.07248ZM35.9428 13.1623H34.8711V9.0965H35.9428C36.4771 9.06693 36.9967 9.27701 37.3595 9.66928C37.7222 10.0615 37.8902 10.5949 37.8175 11.1236C37.8959 11.6544 37.7303 12.1923 37.3667 12.5878C37.003 12.9833 36.48 13.1943 35.9428 13.1623Z" fill="white"/>
<path fill-rule="evenodd" clip-rule="evenodd" d="M40.6642 9.91007C40.0079 10.3162 39.6392 11.0583 39.7127 11.825C39.6378 12.5926 40.0061 13.3361 40.663 13.7431C41.3199 14.1501 42.1516 14.1501 42.8085 13.7431C43.4654 13.3361 43.8337 12.5926 43.7588 11.825C43.8323 11.0583 43.4636 10.3162 42.8073 9.91007C42.151 9.50393 41.3205 9.50393 40.6642 9.91007ZM41.7358 10.3555C42.4689 10.3555 42.8866 10.8977 42.8866 11.825H42.8866C42.8866 12.756 42.4689 13.2978 41.7358 13.2978C40.9999 13.2978 40.5859 12.7597 40.5859 11.825C40.5859 10.8977 40.9999 10.3555 41.7358 10.3555Z" fill="white"/>
<path d="M49.1381 13.9653H48.2599L47.3733 10.8147H47.3063L46.4234 13.9653H45.5536L44.3711 9.6875H45.2298L45.9983 12.9517H46.0615L46.9435 9.6875H47.7557L48.6376 12.9517H48.7046L49.4693 9.6875H50.316L49.1381 13.9653Z" fill="white"/>
<path d="M51.3086 9.68446H52.1236V10.364H52.1868C52.4068 9.86369 52.9209 9.55763 53.467 9.60189C53.8898 9.57019 54.3041 9.73194 54.593 10.0415C54.8818 10.351 55.0139 10.7747 54.9518 11.1929V13.9622H54.1052V11.4049C54.1052 10.7175 53.8056 10.3756 53.1795 10.3756C52.8927 10.3623 52.6144 10.4745 52.4175 10.6829C52.2206 10.8913 52.1248 11.175 52.1552 11.4597V13.9622H51.3086L51.3086 9.68446Z" fill="white"/>
<path d="M56.303 8.01562H57.1496V13.9633H56.303V8.01562Z" fill="white"/>
<path fill-rule="evenodd" clip-rule="evenodd" d="M59.2737 9.91008C58.6173 10.3162 58.2486 11.0583 58.3221 11.8251C58.2472 12.5927 58.6156 13.3362 59.2726 13.7432C59.9295 14.1502 60.7611 14.1502 61.4181 13.7432C62.075 13.3362 62.4434 12.5927 62.3686 11.8251C62.4421 11.0583 62.0733 10.3162 61.417 9.91008C60.7606 9.50393 59.9301 9.50393 59.2737 9.91008ZM60.3452 10.3555C61.0783 10.3555 61.496 10.8977 61.496 11.825H61.496C61.496 12.756 61.0783 13.2978 60.3452 13.2978C59.6093 13.2978 59.1953 12.7597 59.1953 11.825C59.1953 10.8977 59.6093 10.3555 60.3452 10.3555Z" fill="white"/>
<path fill-rule="evenodd" clip-rule="evenodd" d="M64.8572 11.479C63.8367 11.5421 63.2617 11.986 63.2617 12.756C63.2632 13.1211 63.4194 13.4686 63.6918 13.7125C63.9643 13.9564 64.3275 14.0741 64.6917 14.0363C65.2111 14.0602 65.7034 13.8037 65.9802 13.3646H66.0472V13.9658H66.8621V11.043C66.8621 10.1394 66.2556 9.60547 65.1801 9.60547C64.2069 9.60547 63.5138 10.0768 63.4273 10.8115H64.2469C64.3409 10.5091 64.6684 10.3361 65.141 10.3361C65.7197 10.3361 66.0192 10.5912 66.0192 11.043V11.4122L64.8572 11.479ZM66.0195 12.0352V12.3928C66.001 12.6654 65.8723 12.9189 65.663 13.0952C65.4536 13.2715 65.1814 13.3555 64.9088 13.3279C64.4482 13.3279 64.1133 13.1039 64.1133 12.7189C64.1133 12.3418 64.3812 12.1414 64.972 12.102L66.0195 12.0352Z" fill="white"/>
<path fill-rule="evenodd" clip-rule="evenodd" d="M69.7533 9.61458C68.6695 9.61458 67.9727 10.4709 67.9727 11.8226C67.9727 13.1775 68.662 14.0339 69.7533 14.0338C70.3066 14.0541 70.8255 13.7667 71.1005 13.2875H71.1674V13.9633H71.9787V8.01562H71.1321V10.3651H71.0688C70.8132 9.88187 70.3006 9.58944 69.7533 9.61458ZM69.9939 13.2779C69.2766 13.2779 68.8477 12.7319 68.8477 11.8246H68.8477C68.8477 10.9247 69.2812 10.375 69.9939 10.375C70.7028 10.375 71.1484 10.9367 71.1484 11.8283C71.1484 12.724 70.7074 13.2779 69.9939 13.2779Z" fill="white"/>
<path fill-rule="evenodd" clip-rule="evenodd" d="M76.4376 9.91007C75.7813 10.3162 75.4126 11.0583 75.4862 11.825C75.4112 12.5926 75.7796 13.3361 76.4365 13.7431C77.0934 14.1501 77.925 14.1501 78.5819 13.7431C79.2388 13.3361 79.6072 12.5926 79.5322 11.825C79.6058 11.0583 79.2371 10.3162 78.5807 9.91007C77.9244 9.50393 77.0939 9.50393 76.4376 9.91007ZM77.5092 10.3555C78.2423 10.3555 78.6601 10.8977 78.6601 11.825C78.6601 12.756 78.2423 13.2978 77.5092 13.2978C76.7734 13.2978 76.3594 12.7597 76.3594 11.825C76.3594 10.8977 76.7733 10.3555 77.5092 10.3555Z" fill="white"/>
<path d="M80.668 9.68446H81.4829V10.364H81.5462C81.7662 9.86369 82.2803 9.55763 82.8264 9.60189C83.2492 9.57019 83.6635 9.73194 83.9523 10.0415C84.2412 10.351 84.3732 10.7747 84.3112 11.1929V13.9622H83.4646V11.4049C83.4646 10.7175 83.165 10.3756 82.5389 10.3756C82.2521 10.3623 81.9738 10.4745 81.7769 10.6829C81.58 10.8913 81.4842 11.175 81.5146 11.4597V13.9622H80.668V9.68446Z" fill="white"/>
<path d="M89.095 8.62109V9.70561H90.0244V10.4167H89.095V12.6164C89.095 13.0645 89.2801 13.2607 89.7015 13.2607C89.8094 13.2603 89.9172 13.2538 90.0244 13.2412V13.9444C89.8723 13.9715 89.7183 13.986 89.5638 13.9876C88.6223 13.9876 88.2474 13.6573 88.2474 12.8325V10.4167H87.5664V9.70557H88.2474V8.62109H89.095Z" fill="white"/>
<path d="M91.1797 8.01562H92.0189V10.373H92.0858C92.3164 9.86828 92.8395 9.56183 93.3938 9.60669C93.8143 9.58388 94.223 9.74918 94.5087 10.0576C94.7944 10.366 94.9273 10.7853 94.8712 11.2015V13.9633H94.0238V11.4097C94.0238 10.7265 93.7046 10.3804 93.1065 10.3804C92.8119 10.3563 92.5217 10.4631 92.3135 10.6722C92.1052 10.8813 92.0002 11.1714 92.0263 11.4649V13.9633H91.1797L91.1797 8.01562Z" fill="white"/>
<path fill-rule="evenodd" clip-rule="evenodd" d="M97.9491 14.0484C98.7875 14.1391 99.5706 13.6178 99.808 12.8108L98.993 12.8108C98.7898 13.1741 98.3866 13.379 97.9724 13.3294C97.653 13.333 97.3469 13.202 97.1294 12.9687C96.9119 12.7353 96.8031 12.4214 96.8299 12.1039V12.0566H99.8591V11.762C99.8591 10.4187 99.139 9.60554 97.9454 9.60554C97.3719 9.60066 96.8246 9.84416 96.4451 10.2729C96.0656 10.7017 95.8914 11.2736 95.9675 11.8404C95.8893 12.4057 96.0642 12.9767 96.4458 13.4019C96.8274 13.8271 97.3771 14.0635 97.9491 14.0484ZM98.995 11.4327H96.8282C96.8244 11.1377 96.9402 10.8537 97.1493 10.645C97.3584 10.4364 97.6432 10.3208 97.939 10.3245C98.2309 10.3178 98.512 10.4344 98.7131 10.6454C98.9142 10.8564 99.0165 11.1423 98.995 11.4327Z" fill="white"/>
</svg>
