<svg width="129" height="38" viewBox="0 0 129 38" fill="none" xmlns="http://www.w3.org/2000/svg">
<rect width="128.682" height="38" rx="5.5" fill="black"/>
<path fill-rule="evenodd" clip-rule="evenodd" d="M65.9684 7.38189C64.8439 8.56822 64.8439 10.4231 65.9684 11.6094C67.1284 12.7591 69.0024 12.7591 70.1625 11.6094C71.2918 10.425 71.2918 8.56631 70.1625 7.38189C69.6077 6.82495 68.8528 6.51172 68.0654 6.51172C67.278 6.51172 66.5231 6.82495 65.9684 7.38189ZM44.4864 11.6273C44.9756 11.1183 45.234 10.4315 45.2013 9.72733C45.2013 9.58399 45.1886 9.44092 45.1631 9.29983H42.3893V9.98383H44.4578C44.4436 10.4147 44.2745 10.826 43.9812 11.1428C43.3278 11.7723 42.3587 11.9481 41.5247 11.5886C40.6907 11.2291 40.1556 10.4049 40.1684 9.49933C40.1476 8.90009 40.3727 8.31828 40.7918 7.88808C41.2109 7.45787 41.7877 7.21639 42.3893 7.21933C42.9878 7.18674 43.5668 7.43658 43.9526 7.89383L44.4578 7.39033C44.2137 7.11061 43.9067 6.89249 43.5618 6.75383C43.1913 6.59582 42.7923 6.515 42.3893 6.51633C41.5987 6.49877 40.8361 6.80829 40.2827 7.37133C39.4311 8.22569 39.1763 9.50561 39.6362 10.6193C40.0961 11.733 41.181 12.4634 42.3893 12.4728C43.1771 12.5008 43.9396 12.1933 44.4864 11.6273ZM46.993 7.35144H49.5667V6.64844H46.2305V12.3484H49.5667V11.6454H46.993V9.84044H49.3379V9.15644H46.993V7.35144ZM52.6947 12.3484H51.9607V7.35144H50.3594V6.64844H54.3342V7.35144H52.6947V12.3484ZM57.137 6.64844V12.3484H57.8709V6.64844H57.137ZM61.1283 12.3484H60.3943V7.35144H58.793V6.64844H62.7201V7.35144H61.1283V12.3484ZM66.5156 11.1341C67.3748 11.9868 68.7639 11.9868 69.6231 11.1341C70.4668 10.207 70.4668 8.79311 69.6231 7.86608C68.7639 7.01339 67.3748 7.01339 66.5156 7.86608C65.6719 8.79311 65.6719 10.207 66.5156 11.1341ZM72.043 6.64844V12.3484H72.7865V7.70294L75.6937 12.3484H76.4563V6.64844H75.7223V11.0849L72.939 6.64844H72.043Z" fill="white"/>
<path d="M65.9684 11.6094L65.7869 11.7815L65.7924 11.787L65.9684 11.6094ZM65.9684 7.38189L65.7912 7.2054L65.7869 7.2099L65.9684 7.38189ZM70.1625 11.6094L70.3385 11.787L70.3434 11.7819L70.1625 11.6094ZM70.1625 7.38189L70.3434 7.20933L70.3396 7.20546L70.1625 7.38189ZM45.2013 9.72733L44.951 9.72723L44.9515 9.73895L45.2013 9.72733ZM44.4864 11.6273L44.6662 11.801L44.6666 11.8006L44.4864 11.6273ZM45.1631 9.29983L45.4092 9.2555L45.3721 9.04983H45.1631V9.29983ZM42.3893 9.29983V9.04983H42.1393V9.29983H42.3893ZM42.3893 9.98383H42.1393V10.2338H42.3893V9.98383ZM44.4578 9.98383L44.7076 9.99202L44.7161 9.73383H44.4578V9.98383ZM43.9812 11.1428L44.1546 11.3229L44.1598 11.3179L44.1646 11.3127L43.9812 11.1428ZM41.5247 11.5886L41.6237 11.359H41.6237L41.5247 11.5886ZM40.1684 9.49933L40.4186 9.50286L40.4182 9.49068L40.1684 9.49933ZM40.7918 7.88808L40.9709 8.06252V8.06252L40.7918 7.88808ZM42.3893 7.21933L42.3881 7.46933L42.3955 7.46937L42.4029 7.46896L42.3893 7.21933ZM43.9526 7.89383L43.7615 8.05503L43.9366 8.26267L44.129 8.07091L43.9526 7.89383ZM44.4578 7.39033L44.6342 7.56741L44.7999 7.40227L44.6461 7.22598L44.4578 7.39033ZM43.5618 6.75383L43.4637 6.98384L43.4685 6.98579L43.5618 6.75383ZM42.3893 6.51633L42.3838 6.76635L42.3901 6.76633L42.3893 6.51633ZM40.2827 7.37133L40.4598 7.54783L40.4611 7.54657L40.2827 7.37133ZM39.6362 10.6193L39.4051 10.7147H39.4051L39.6362 10.6193ZM42.3893 12.4728L42.3982 12.2229L42.3913 12.2228L42.3893 12.4728ZM49.5667 7.35144V7.60144H49.8167V7.35144H49.5667ZM46.993 7.35144V7.10144H46.743V7.35144H46.993ZM49.5667 6.64844H49.8167V6.39844H49.5667V6.64844ZM46.2305 6.64844V6.39844H45.9805V6.64844H46.2305ZM46.2305 12.3484H45.9805V12.5984H46.2305V12.3484ZM49.5667 12.3484V12.5984H49.8167V12.3484H49.5667ZM49.5667 11.6454H49.8167V11.3954H49.5667V11.6454ZM46.993 11.6454H46.743V11.8954H46.993V11.6454ZM46.993 9.84044V9.59044H46.743V9.84044H46.993ZM49.3379 9.84044V10.0904H49.5879V9.84044H49.3379ZM49.3379 9.15644H49.5879V8.90644H49.3379V9.15644ZM46.993 9.15644H46.743V9.40644H46.993V9.15644ZM51.9607 12.3484H51.7107V12.5984H51.9607V12.3484ZM52.6947 12.3484V12.5984H52.9447V12.3484H52.6947ZM51.9607 7.35144H52.2107V7.10144H51.9607V7.35144ZM50.3594 7.35144H50.1094V7.60144H50.3594V7.35144ZM50.3594 6.64844V6.39844H50.1094V6.64844H50.3594ZM54.3342 6.64844H54.5842V6.39844H54.3342V6.64844ZM54.3342 7.35144V7.60144H54.5842V7.35144H54.3342ZM52.6947 7.35144V7.10144H52.4447V7.35144H52.6947ZM57.137 12.3484H56.887V12.5984H57.137V12.3484ZM57.137 6.64844V6.39844H56.887V6.64844H57.137ZM57.8709 12.3484V12.5984H58.1209V12.3484H57.8709ZM57.8709 6.64844H58.1209V6.39844H57.8709V6.64844ZM60.3943 12.3484H60.1443V12.5984H60.3943V12.3484ZM61.1283 12.3484V12.5984H61.3783V12.3484H61.1283ZM60.3943 7.35144H60.6443V7.10144H60.3943V7.35144ZM58.793 7.35144H58.543V7.60144H58.793V7.35144ZM58.793 6.64844V6.39844H58.543V6.64844H58.793ZM62.7201 6.64844H62.9701V6.39844H62.7201V6.64844ZM62.7201 7.35144V7.60144H62.9701V7.35144H62.7201ZM61.1283 7.35144V7.10144H60.8783V7.35144H61.1283ZM69.6231 11.1341L69.7994 11.3117L69.808 11.3024L69.6231 11.1341ZM66.5156 11.1341L66.3305 11.3026L66.3395 11.3115L66.5156 11.1341ZM69.6231 7.86608L69.8082 7.69758L69.7992 7.68864L69.6231 7.86608ZM66.5156 7.86608L66.3393 7.68841L66.3308 7.6978L66.5156 7.86608ZM72.043 12.3484H71.793V12.5984H72.043V12.3484ZM72.043 6.64844V6.39844H71.793V6.64844H72.043ZM72.7865 12.3484V12.5984H73.0365V12.3484H72.7865ZM72.7865 7.70294L72.9984 7.57031L72.5365 6.83221V7.70294H72.7865ZM75.6937 12.3484L75.4818 12.4811L75.5553 12.5984H75.6937V12.3484ZM76.4563 12.3484V12.5984H76.7063V12.3484H76.4563ZM76.4563 6.64844H76.7063V6.39844H76.4563V6.64844ZM75.7223 6.64844V6.39844H75.4723V6.64844H75.7223ZM75.7223 11.0849L75.5105 11.2178L75.9723 11.9538V11.0849H75.7223ZM72.939 6.64844L73.1507 6.51558L73.0773 6.39844H72.939V6.64844ZM66.1498 11.4374C65.1167 10.3475 65.1167 8.64376 66.1498 7.55387L65.7869 7.2099C64.571 8.49267 64.571 10.4986 65.7869 11.7814L66.1498 11.4374ZM69.9865 11.4318C68.9239 12.485 67.207 12.485 66.1444 11.4318L65.7924 11.787C67.0499 13.0332 69.0809 13.0332 70.3384 11.787L69.9865 11.4318ZM69.9815 7.55441C71.0188 8.64225 71.0188 10.349 69.9815 11.4369L70.3434 11.7819C71.5648 10.5009 71.5648 8.49037 70.3434 7.20937L69.9815 7.55441ZM68.0654 6.76172C68.7865 6.76172 69.4776 7.04856 69.9853 7.55832L70.3396 7.20546C69.7378 6.60133 68.9192 6.26172 68.0654 6.26172V6.76172ZM66.1455 7.55832C66.6533 7.04856 67.3444 6.76172 68.0654 6.76172V6.26172C67.2117 6.26172 66.393 6.60133 65.7913 7.20546L66.1455 7.55832ZM44.9515 9.73895C44.9811 10.3745 44.7479 10.9944 44.3061 11.4541L44.6666 11.8006C45.2033 11.2421 45.4869 10.4886 45.451 9.71572L44.9515 9.73895ZM44.9171 9.34417C44.9399 9.4706 44.9513 9.59879 44.9513 9.72723L45.4513 9.72743C45.4513 9.56918 45.4372 9.41125 45.4092 9.2555L44.9171 9.34417ZM42.3893 9.54983H45.1631V9.04983H42.3893V9.54983ZM42.6393 9.98383V9.29983H42.1393V9.98383H42.6393ZM44.4578 9.73383H42.3893V10.2338H44.4578V9.73383ZM44.1646 11.3127C44.4987 10.9518 44.6915 10.4831 44.7076 9.99202L44.2079 9.97564C44.1957 10.3462 44.0502 10.7003 43.7977 10.973L44.1646 11.3127ZM41.4257 11.8182C42.3521 12.2175 43.4286 12.0223 44.1546 11.3229L43.8077 10.9628C43.227 11.5222 42.3653 11.6787 41.6237 11.359L41.4257 11.8182ZM39.9184 9.49581C39.9042 10.5028 40.4992 11.4188 41.4257 11.8182L41.6237 11.359C40.8821 11.0394 40.407 10.3069 40.4183 9.50286L39.9184 9.49581ZM40.6127 7.71363C40.1462 8.19258 39.8954 8.84049 39.9185 9.50799L40.4182 9.49068C40.3998 8.95969 40.5993 8.44399 40.9709 8.06252L40.6127 7.71363ZM42.3905 6.96934C41.7212 6.96606 41.0792 7.23472 40.6127 7.71363L40.9709 8.06252C41.3425 7.68102 41.8542 7.46672 42.3881 7.46933L42.3905 6.96934ZM44.1437 7.73264C43.7072 7.21529 43.0524 6.93285 42.3757 6.9697L42.4029 7.46896C42.9233 7.44062 43.4265 7.65787 43.7615 8.05503L44.1437 7.73264ZM44.2813 7.21326L43.7761 7.71676L44.129 8.07091L44.6342 7.56741L44.2813 7.21326ZM43.4685 6.98579C43.7769 7.10976 44.0513 7.30473 44.2694 7.55468L44.6461 7.22598C44.3761 6.91649 44.0365 6.67522 43.655 6.52187L43.4685 6.98579ZM42.3901 6.76633C42.7591 6.76511 43.1245 6.83912 43.4637 6.98379L43.6598 6.52388C43.2581 6.35252 42.8254 6.26488 42.3885 6.26633L42.3901 6.76633ZM40.4611 7.54657C40.966 7.03283 41.662 6.75024 42.3838 6.76627L42.3949 6.2664C41.5354 6.24731 40.7063 6.58376 40.1044 7.1961L40.4611 7.54657ZM39.8673 10.5239C39.4459 9.50358 39.6793 8.33086 40.4598 7.54783L40.1057 7.19484C39.1829 8.12052 38.9067 9.50765 39.4051 10.7147L39.8673 10.5239ZM42.3913 12.2228C41.2831 12.2142 40.2886 11.5443 39.8673 10.5239L39.4051 10.7147C39.9035 11.9217 41.0789 12.7126 42.3874 12.7228L42.3913 12.2228ZM44.3065 11.4536C43.8092 11.9686 43.1153 12.2484 42.3982 12.223L42.3805 12.7227C43.239 12.7531 44.0701 12.4181 44.6662 11.801L44.3065 11.4536ZM49.5667 7.10144H46.993V7.60144H49.5667V7.10144ZM49.3167 6.64844V7.35144H49.8167V6.64844H49.3167ZM46.2305 6.89844H49.5667V6.39844H46.2305V6.89844ZM46.4805 12.3484V6.64844H45.9805V12.3484H46.4805ZM49.5667 12.0984H46.2305V12.5984H49.5667V12.0984ZM49.3167 11.6454V12.3484H49.8167V11.6454H49.3167ZM46.993 11.8954H49.5667V11.3954H46.993V11.8954ZM46.743 9.84044V11.6454H47.243V9.84044H46.743ZM49.3379 9.59044H46.993V10.0904H49.3379V9.59044ZM49.0879 9.15644V9.84044H49.5879V9.15644H49.0879ZM46.993 9.40644H49.3379V8.90644H46.993V9.40644ZM46.743 7.35144V9.15644H47.243V7.35144H46.743ZM51.9607 12.5984H52.6947V12.0984H51.9607V12.5984ZM51.7107 7.35144V12.3484H52.2107V7.35144H51.7107ZM50.3594 7.60144H51.9607V7.10144H50.3594V7.60144ZM50.1094 6.64844V7.35144H50.6094V6.64844H50.1094ZM54.3342 6.39844H50.3594V6.89844H54.3342V6.39844ZM54.5842 7.35144V6.64844H54.0842V7.35144H54.5842ZM52.6947 7.60144H54.3342V7.10144H52.6947V7.60144ZM52.9447 12.3484V7.35144H52.4447V12.3484H52.9447ZM57.387 12.3484V6.64844H56.887V12.3484H57.387ZM57.8709 12.0984H57.137V12.5984H57.8709V12.0984ZM57.6209 6.64844V12.3484H58.1209V6.64844H57.6209ZM57.137 6.89844H57.8709V6.39844H57.137V6.89844ZM60.3943 12.5984H61.1283V12.0984H60.3943V12.5984ZM60.1443 7.35144V12.3484H60.6443V7.35144H60.1443ZM58.793 7.60144H60.3943V7.10144H58.793V7.60144ZM58.543 6.64844V7.35144H59.043V6.64844H58.543ZM62.7201 6.39844H58.793V6.89844H62.7201V6.39844ZM62.9701 7.35144V6.64844H62.4701V7.35144H62.9701ZM61.1283 7.60144H62.7201V7.10144H61.1283V7.60144ZM61.3783 12.3484V7.35144H60.8783V12.3484H61.3783ZM69.447 10.9566C68.6853 11.7126 67.4534 11.7126 66.6917 10.9566L66.3395 11.3115C67.2961 12.261 68.8426 12.261 69.7992 11.3115L69.447 10.9566ZM69.4382 8.03436C70.1951 8.86601 70.1951 10.1341 69.4382 10.9658L69.808 11.3024C70.7385 10.2799 70.7385 8.72022 69.808 7.6978L69.4382 8.03436ZM66.6917 8.04352C67.4534 7.28758 68.6853 7.28758 69.447 8.04352L69.7992 7.68864C68.8426 6.7392 67.2961 6.7392 66.3395 7.68864L66.6917 8.04352ZM66.7005 10.9658C65.9436 10.1341 65.9436 8.86601 66.7005 8.03436L66.3308 7.6978C65.4002 8.72022 65.4002 10.2799 66.3308 11.3024L66.7005 10.9658ZM72.293 12.3484V6.64844H71.793V12.3484H72.293ZM72.7865 12.0984H72.043V12.5984H72.7865V12.0984ZM72.5365 7.70294V12.3484H73.0365V7.70294H72.5365ZM75.9056 12.2158L72.9984 7.57031L72.5745 7.83556L75.4818 12.4811L75.9056 12.2158ZM76.4563 12.0984H75.6937V12.5984H76.4563V12.0984ZM76.2063 6.64844V12.3484H76.7063V6.64844H76.2063ZM75.7223 6.89844H76.4563V6.39844H75.7223V6.89844ZM75.9723 11.0849V6.64844H75.4723V11.0849H75.9723ZM72.7272 6.7813L75.5105 11.2178L75.9341 10.9521L73.1507 6.51558L72.7272 6.7813ZM72.043 6.89844H72.939V6.39844H72.043V6.89844Z" fill="white"/>
<path fill-rule="evenodd" clip-rule="evenodd" d="M45.5066 21.9102V23.6202H49.6244C49.5599 24.4256 49.2239 25.1856 48.6712 25.7767C47.8381 26.6224 46.6853 27.0779 45.4971 27.0307C42.9702 27.0307 40.9217 24.9891 40.9217 22.4707C40.9217 19.9523 42.9702 17.9107 45.4971 17.9107C46.6579 17.8918 47.7788 18.3326 48.614 19.1362L49.8246 17.9297C48.6854 16.7801 47.1277 16.1392 45.5066 16.1532C43.1989 16.0637 41.0269 17.2397 39.8464 19.218C38.6658 21.1962 38.6658 23.6597 39.8464 25.638C41.0269 27.6162 43.1989 28.7922 45.5066 28.7027C47.1573 28.777 48.7596 28.1362 49.9008 26.9452C50.8995 25.8517 51.4327 24.4142 51.3878 22.9362C51.3909 22.5761 51.359 22.2166 51.2925 21.8627L45.5066 21.9102ZM56.0767 20.6648C53.8406 20.67 52.0317 22.48 52.0352 24.7086C52.0387 26.9372 53.8533 28.7415 56.0894 28.7398C58.3255 28.738 60.1373 26.9309 60.1373 24.7023C60.153 23.6235 59.7286 22.5845 58.9613 21.8233C58.194 21.0622 57.1496 20.6441 56.0672 20.6648H56.0767ZM60.918 24.7149C60.911 22.4875 62.7152 20.6753 64.95 20.6648C66.0324 20.6441 67.0769 21.0622 67.8442 21.8233C68.6115 22.5845 69.0359 23.6235 69.0202 24.7023C69.0201 26.9297 67.2103 28.7363 64.9754 28.7397C62.7405 28.7432 60.925 26.9423 60.918 24.7149ZM62.5606 25.7654C62.9959 26.6735 63.9439 27.2241 64.9512 27.1539C65.5834 27.1393 66.183 26.8708 66.6137 26.4093C67.0444 25.9478 67.2699 25.3325 67.2389 24.7029C67.2364 23.6965 66.6169 22.7939 65.6767 22.4268C64.7366 22.0597 63.6667 22.3027 62.979 23.0395C62.2912 23.7764 62.1253 24.8574 62.5606 25.7654ZM53.6809 25.772C54.1193 26.6796 55.0701 27.2274 56.0779 27.1533H56.0684C56.7006 27.1386 57.3001 26.8701 57.7309 26.4086C58.1616 25.9471 58.3871 25.3318 58.356 24.7023C58.3533 23.6951 57.7326 22.7921 56.7912 22.4258C55.8499 22.0594 54.7795 22.3044 54.0927 23.0433C53.4059 23.7821 53.2426 24.8645 53.6809 25.772ZM85.2265 20.6641C86.8068 20.7221 88.1872 21.7463 88.6962 23.2386L88.8963 23.6661L83.4726 25.8986C83.8126 26.6702 84.5913 27.1562 85.4362 27.1241C86.252 27.1261 87.0087 26.7003 87.4284 26.0031L88.8105 26.9531C88.0581 28.0754 86.7906 28.7463 85.4362 28.7391C84.3596 28.7548 83.3229 28.3335 82.5643 27.5721C81.8056 26.8106 81.3903 25.7744 81.4137 24.7016C81.3478 23.6533 81.7203 22.6245 82.4426 21.8597C83.1649 21.0948 84.1726 20.662 85.2265 20.6641ZM83.1649 24.5899C83.1259 23.9963 83.3282 23.412 83.7263 22.9688C84.1244 22.5256 84.6848 22.2607 85.281 22.2339C85.9095 22.1926 86.5021 22.529 86.7871 23.0889L83.1649 24.5899ZM80.5442 28.5039H78.7617V16.6289H80.5442V28.5039ZM75.8471 21.5672H75.7804C75.237 20.9617 74.4602 20.6161 73.6452 20.6172C71.4816 20.7218 69.7812 22.5005 69.7812 24.6594C69.7812 26.8183 71.4816 28.5971 73.6452 28.7017C74.4629 28.7154 75.2447 28.3675 75.7804 27.7517H75.8376V28.3312C75.8376 29.8797 75.0083 30.7062 73.6738 30.7062C72.7647 30.685 71.9587 30.1182 71.6339 29.2717L70.0802 29.9177C70.6785 31.3682 72.1003 32.3116 73.6738 32.3022C75.7613 32.3022 77.4866 31.0767 77.4866 28.0937V20.9022H75.8471V21.5672ZM73.8038 27.1517L73.8067 27.152H73.7972L73.8038 27.1517ZM75.41 26.3899C75.0009 26.8512 74.4208 27.1263 73.8038 27.1517C72.5307 27.0384 71.5547 25.9752 71.5547 24.701C71.5547 23.4258 72.5322 22.3619 73.8067 22.25C74.4226 22.2815 74.9997 22.5595 75.407 23.0209C75.8144 23.4824 76.0176 24.0882 75.9705 24.701C76.0231 25.3166 75.8205 25.9269 75.41 26.3899ZM97.046 16.6267H92.7852V28.5017H94.5676V23.9987H97.0555C98.4402 24.0979 99.7645 23.4178 100.487 22.2364C101.21 21.0551 101.21 19.5704 100.487 18.389C99.7645 17.2076 98.4402 16.5276 97.0555 16.6267H97.046ZM94.5586 22.3282H97.0464L97.0846 22.3568C98.2138 22.3568 99.1292 21.4444 99.1292 20.319C99.1292 19.1936 98.2138 18.2812 97.0846 18.2812H94.5586V22.3282ZM108.035 20.6192C106.709 20.5402 105.462 21.253 104.861 22.4337L106.443 23.0892C106.762 22.5037 107.397 22.1609 108.064 22.2152C108.521 22.162 108.98 22.2941 109.338 22.5817C109.697 22.8693 109.924 23.2883 109.97 23.7447V23.8682C109.397 23.5661 108.759 23.4095 108.111 23.4122C106.405 23.4122 104.68 24.3622 104.68 26.0817C104.714 26.8225 105.047 27.518 105.603 28.01C106.16 28.5021 106.893 28.7489 107.635 28.6942C108.549 28.7597 109.426 28.3225 109.922 27.5542H109.979V28.5042H111.695V23.9347C111.695 21.8542 110.113 20.6477 108.083 20.6477L108.035 20.6192ZM106.426 26.1201C106.426 26.8326 107.236 27.1271 107.817 27.1271L107.865 27.1556C108.939 27.1295 109.829 26.3191 109.953 25.2556C109.458 24.9805 108.898 24.8427 108.332 24.8566C107.436 24.8566 106.426 25.1701 106.426 26.1201ZM117.952 20.9023L115.912 26.0513H115.855L113.738 20.9023H111.832L115.006 28.1033L113.195 32.1028H115.054L119.934 20.9023H117.952ZM103.708 28.5039H101.926V16.6289H103.708V28.5039Z" fill="white"/>
<path d="M9.9536 7.16416C9.64292 7.53571 9.48611 8.01136 9.51513 8.49416V29.5082C9.48611 29.9909 9.64292 30.4666 9.9536 30.8382L10.0203 30.9047L21.8305 19.1437V18.8682L10.0203 7.09766L9.9536 7.16416Z" fill="url(#paint0_linear_1776_2083)"/>
<path d="M25.7362 23.0656L21.8281 19.1421V18.8666L25.7362 14.9336L25.822 14.9811L30.5022 17.6316C31.8367 18.3821 31.8367 19.6171 30.5022 20.3771L25.8411 23.0181L25.7362 23.0656Z" fill="url(#paint1_linear_1776_2083)"/>
<path d="M25.8525 23.009L21.83 19L9.95312 30.837C10.5143 31.3286 11.3471 31.3526 11.9358 30.894L25.862 23.009" fill="url(#paint2_linear_1776_2083)"/>
<path d="M25.8503 14.9908L11.9241 7.10583C11.3354 6.64724 10.5026 6.67118 9.94141 7.16283L21.8278 18.9998L25.8503 14.9908Z" fill="url(#paint3_linear_1776_2083)"/>
<path opacity="0.2" d="M25.7381 22.9219L11.9262 30.7594C11.361 31.1805 10.5851 31.1805 10.0198 30.7594L9.95312 30.8259L10.0198 30.8924C10.584 31.3167 11.3621 31.3167 11.9262 30.8924L25.8525 23.0074L25.7381 22.9219Z" fill="black"/>
<path opacity="0.12" fill-rule="evenodd" clip-rule="evenodd" d="M25.7386 22.9235L30.5046 20.235C30.9972 19.9927 31.3492 19.5366 31.4578 19C31.4087 19.5932 31.0452 20.1149 30.5046 20.368L25.8244 23.009L25.7386 22.9235ZM9.51306 29.5599C9.5288 29.9779 9.68271 30.381 9.9536 30.705L10.0203 30.781L9.9536 30.8475C9.65203 30.4868 9.49544 30.0281 9.51306 29.5599ZM9.51306 29.5599C9.51359 29.5458 9.51428 29.5317 9.51513 29.5175V29.375C9.51142 29.4368 9.51075 29.4985 9.51306 29.5599Z" fill="black"/>
<path opacity="0.25" d="M11.925 7.23931L30.5029 17.7653C30.9954 18.0076 31.3474 18.4637 31.4561 19.0003C31.407 18.4071 31.0434 17.8854 30.5029 17.6323L11.925 7.10631C10.5906 6.35581 9.50391 6.98281 9.50391 8.50281V8.64531C9.5325 7.11581 10.6001 6.48881 11.925 7.23931Z" fill="white"/>
<defs>
<linearGradient id="paint0_linear_1776_2083" x1="16.6577" y1="-7.17987" x2="-2.24482" y2="-2.13578" gradientUnits="userSpaceOnUse">
<stop stop-color="#00A0FF"/>
<stop offset="0.01" stop-color="#00A1FF"/>
<stop offset="0.26" stop-color="#00BEFF"/>
<stop offset="0.51" stop-color="#00D2FF"/>
<stop offset="0.76" stop-color="#00DFFF"/>
<stop offset="1" stop-color="#00E3FF"/>
</linearGradient>
<linearGradient id="paint1_linear_1776_2083" x1="32.2466" y1="9.30929" x2="9.18871" y2="9.30929" gradientUnits="userSpaceOnUse">
<stop stop-color="#FFE000"/>
<stop offset="0.41" stop-color="#FFBD00"/>
<stop offset="0.78" stop-color="#FFA500"/>
<stop offset="1" stop-color="#FF9C00"/>
</linearGradient>
<linearGradient id="paint2_linear_1776_2083" x1="9.60415" y1="12.8512" x2="-5.51111" y2="38.362" gradientUnits="userSpaceOnUse">
<stop stop-color="#FF3A44"/>
<stop offset="1" stop-color="#C31162"/>
</linearGradient>
<linearGradient id="paint3_linear_1776_2083" x1="0.676333" y1="3.89103" x2="7.42307" y2="15.2829" gradientUnits="userSpaceOnUse">
<stop stop-color="#32A071"/>
<stop offset="0.07" stop-color="#2DA771"/>
<stop offset="0.48" stop-color="#15CF74"/>
<stop offset="0.8" stop-color="#06E775"/>
<stop offset="1" stop-color="#00F076"/>
</linearGradient>
</defs>
</svg>
