<?xml version="1.0" encoding="UTF-8"?>
<svg width="581px" height="278px" viewBox="0 0 581 278" version="1.1" xmlns="http://www.w3.org/2000/svg" xmlns:xlink="http://www.w3.org/1999/xlink">
    <title>Group 7</title>
    <defs>
        <linearGradient x1="50%" y1="0%" x2="50%" y2="100%" id="linearGradient-1">
            <stop stop-color="#FFFFFF" stop-opacity="0.6" offset="0%"></stop>
            <stop stop-color="#FFFFFF" stop-opacity="0.8" offset="100%"></stop>
        </linearGradient>
        <polygon id="path-2" points="0 0 110 0 110 152 0 152"></polygon>
        <polygon id="path-4" points="0 0 94 0 94 130 0 130"></polygon>
    </defs>
    <g id="Page-2-(Final)" stroke="none" stroke-width="1" fill="none" fill-rule="evenodd">
        <g id="Group-8" transform="translate(0.000000, -202.000000)">
            <g id="Group-7" transform="translate(0.000000, 202.000000)">
                <g id="Group-2">
                    <g id="Group" transform="translate(0.000000, 44.000000)" fill="url(#linearGradient-1)">
                        <path d="M581,0 L581,2 L485.864,2 L579.907621,12.6087394 L579.907621,16.25 L483.747,2 L432.043,2 L579.804378,26.4529343 L579.804,29 L581,29 L581,34 L520.977,34 L580.913819,49.9271515 L580.913819,57.9076622 L502.117,34 L463.306,34 L580.167816,74.7047684 L580.167,81 L581,81 L581,89 L514.008,89 L580.428361,123.414109 L580.428361,135.573156 L497.567,89 L403.095,89 L497.605,186 L581,186 L581,198 L509.297,198 L544.37346,234 L517.19269,234 L485.715,198 L296.197,198 L297.330657,234 L281.23484,234 L282.272,198 L93.127,198 L61.6501699,234 L34.4694002,234 L69.545,198 L0,198 L0,186 L81.237,186 L175.747,89 L82.861,89 L0,135.573156 L0,123.414109 L66.42,89 L0,89 L0,74.7047684 L116.861,34 L78.796,34 L0,57.9076622 L0,49.9271515 L59.936,34 L0,34 L0,26.4529343 L147.761,2 L96.159,2 L0,16.25 L0,12.6087394 L94.042,2 L0,2 L0,0 L581,0 Z M390.412,89 L292.768,89 L295.82,186 L475.223,186 L390.412,89 Z M285.416,89 L188.43,89 L103.619,186 L282.618,186 L285.416,89 Z M453.306,34 L407.856,34 L498.568,81 L579.075,81 L453.306,34 Z M172.572,34 L126.861,34 L1.092,81 L81.86,81 L172.572,34 Z M399.713,34 L349.507,34 L395.3,81 L483.333,81 L399.713,34 Z M229.335,34 L180.715,34 L97.095,81 L183.542,81 L229.335,34 Z M342.322,34 L291.038,34 L292.517,81 L383.417,81 L342.322,34 Z M287.002,34 L236.52,34 L195.425,81 L285.647,81 L287.002,34 Z M431.043,2 L400.557,2 L502.162,29 L567.197,29 L431.043,2 Z M180.356,2 L148.761,2 L12.607,29 L78.751,29 L180.356,2 Z M396.648,2 L371.434,2 L448.951,29 L485.638,29 L396.648,2 Z M208.732,2 L184.265,2 L95.275,29 L131.215,29 L208.732,2 Z M367.676,2 L346.095,2 L398.206,29 L439.926,29 L367.676,2 Z M234.333,2 L212.491,2 L140.241,29 L182.222,29 L234.333,2 Z M342.779,2 L318.328,2 L344.635,29 L390.817,29 L342.779,2 Z M260.514,2 L237.649,2 L189.611,29 L234.207,29 L260.514,2 Z M314.343,2 L290.031,2 L290.881,29 L337.951,29 L314.343,2 Z M287.925,2 L264.499,2 L240.891,29 L287.146,29 L287.925,2 Z" id="Combined-Shape"></path>
                    </g>
                    <g id="Group-3" transform="translate(327.000000, 85.000000)">
                        <mask id="mask-3" fill="white">
                            <use xlink:href="#path-2"></use>
                        </mask>
                        <g id="Clip-2"></g>
                        <path d="M54.99021,82.740519 C70.2104647,82.721455 82.6062349,70.3029997 82.6303763,55.0493471 C82.6547431,39.8135466 70.2866493,27.3772393 55.0410989,27.3079281 C39.8101307,27.2391837 27.2831206,39.7888513 27.3273451,55.0728523 C27.3718042,70.3378111 39.7910845,82.7595393 54.99021,82.740519 M56.1660121,152.00006 L53.7914929,152.00006 C52.517484,150.950064 51.0625367,150.056868 49.9983331,148.825377 C40.9674819,138.375106 32.5285494,127.461575 24.8696163,115.962498 C16.9077303,104.008493 9.72584371,91.6221712 4.70748073,78.1001639 C0.962233861,68.0084209 -1.1066542,57.6982883 0.612558448,46.8517027 C2.82280466,32.9071978 9.30028129,21.3563503 20.1821802,12.480627 C32.5202167,2.41685216 46.7753673,-1.62157072 62.5827792,0.58672329 C78.7470088,2.8447054 91.5373914,10.9236339 100.60068,24.4036889 C110.140123,38.5918738 112.26615,54.1522835 107.670076,70.6320718 C104.606324,81.617308 99.6590864,91.7789713 94.0110101,101.606802 C84.2930096,118.515931 72.6477768,134.055216 59.959172,148.825972 C58.8991347,150.059843 57.4397234,150.950064 56.1660121,152.00006" id="Fill-1" fill="#FFFFFF" mask="url(#mask-3)"></path>
                    </g>
                    <g id="Group-3-Copy" transform="translate(100.000000, 0.000000)">
                        <mask id="mask-5" fill="white">
                            <use xlink:href="#path-4"></use>
                        </mask>
                        <g id="Clip-2"></g>
                        <path d="M46.991634,70.7649176 C59.9980335,70.7486128 70.5907826,60.1275655 70.6114124,47.0816785 C70.632235,34.0510596 60.0631367,23.4147441 47.0351209,23.3554648 C34.0195662,23.2966703 23.3146667,34.0299386 23.3524585,47.1017815 C23.3904509,60.1573384 34.0032904,70.7811849 46.991634,70.7649176 M47.9964104,130.000051 L45.9672757,130.000051 C44.8785772,129.102028 43.6352586,128.338111 42.7258482,127.284861 C35.0085754,118.34713 27.797124,109.013189 21.2522175,99.1784525 C14.4484241,88.9546321 8.31117553,78.3610674 4.02275626,66.7961928 C0.822272572,58.1650968 -0.945686317,49.3472203 0.523459037,40.0705352 C2.41221489,28.1443139 7.9475131,18.2652996 17.2465903,10.6742204 C27.7900034,2.06704461 39.9716775,-1.3868697 53.4798295,0.501802814 C67.2928984,2.43297173 78.2228617,9.34258163 85.9678542,20.8715761 C94.1197418,33.0062079 95.9365281,46.314453 92.0089738,60.4090087 C89.3908586,69.8042766 85.1632193,78.4951729 80.3366814,86.9005544 C72.0322082,101.36231 62.0808274,114.652487 51.2378379,127.28537 C50.3319878,128.340655 49.0848546,129.102028 47.9964104,130.000051" id="Fill-1" fill="#FFFFFF" mask="url(#mask-5)"></path>
                    </g>
                </g>
                <path d="M454.353113,74.1443797 L498.984611,16.1776504 C499.231053,15.8575758 499.171361,15.3983238 498.851287,15.1518823 C498.723381,15.0534016 498.56649,15 498.405065,15 L491.733038,15 C491.051425,15 490.408516,15.3167534 489.993178,15.8572077 L445.446704,73.8228788 C445.200555,74.1431781 445.260666,74.6023755 445.580965,74.8485247 C445.708779,74.9467493 445.865461,75 446.026658,75 L452.614475,75 C453.295384,75 453.937712,74.6838971 454.353113,74.1443797 Z M451.820299,47.2375091 C453.999403,47.2375091 456.047761,46.8175235 457.965373,45.9775525 C459.882985,45.1375815 461.553632,43.9862419 462.977313,42.5235337 C464.400995,41.0608255 465.526866,39.35916 466.354925,37.4185373 C467.182985,35.4779146 467.597015,33.3924692 467.597015,31.1622013 C467.597015,28.9319334 467.182985,26.8392469 466.354925,24.8841419 C465.526866,22.9290369 464.400995,21.2201303 462.977313,19.7574222 C461.553632,18.294714 459.882985,17.1361332 457.965373,16.2816799 C456.047761,15.4272266 453.999403,15 451.820299,15 C449.641194,15 447.592836,15.4272266 445.675224,16.2816799 C443.757612,17.1361332 442.079701,18.294714 440.641493,19.7574222 C439.203284,21.2201303 438.070149,22.9290369 437.24209,24.8841419 C436.41403,26.8392469 436,28.9319334 436,31.1622013 C436,33.3924692 436.41403,35.4779146 437.24209,37.4185373 C438.070149,39.35916 439.203284,41.0608255 440.641493,42.5235337 C442.079701,43.9862419 443.757612,45.1375815 445.675224,45.9775525 C447.592836,46.8175235 449.641194,47.2375091 451.820299,47.2375091 Z M451.820299,42.4149167 C450.948657,42.4149167 450.127861,42.1180304 449.35791,41.5242578 C448.58796,40.9304852 447.912438,40.1267198 447.331343,39.1129616 C446.750249,38.0992035 446.292637,36.9116582 445.958507,35.5503259 C445.624378,34.1889935 445.457313,32.7262853 445.457313,31.1622013 C445.457313,29.5981173 445.624378,28.1354091 445.958507,26.7740768 C446.292637,25.4127444 446.750249,24.2251991 447.331343,23.211441 C447.912438,22.1976828 448.58796,21.3939175 449.35791,20.8001448 C450.127861,20.2063722 450.948657,19.9094859 451.820299,19.9094859 C452.69194,19.9094859 453.512736,20.2063722 454.282687,20.8001448 C455.052637,21.3939175 455.720896,22.1976828 456.287463,23.211441 C456.85403,24.2251991 457.304378,25.4127444 457.638507,26.7740768 C457.972637,28.1354091 458.139701,29.5981173 458.139701,31.1622013 C458.139701,32.7262853 457.972637,34.1889935 457.638507,35.5503259 C457.304378,36.9116582 456.85403,38.0992035 456.287463,39.1129616 C455.720896,40.1267198 455.052637,40.9304852 454.282687,41.5242578 C453.512736,42.1180304 452.69194,42.4149167 451.820299,42.4149167 Z M493.223284,75 C495.402388,75 497.450746,74.5800145 499.368358,73.7400434 C501.28597,72.9000724 502.956617,71.7559739 504.380299,70.307748 C505.80398,68.8595221 506.929851,67.1578566 507.75791,65.2027516 C508.58597,63.2476466 509,61.1404779 509,58.8812455 C509,56.6799421 508.58597,54.5944967 507.75791,52.6249095 C506.929851,50.6553222 505.80398,48.9464156 504.380299,47.4981897 C502.956617,46.0499638 501.28597,44.8986242 499.368358,44.0441709 C497.450746,43.1897176 495.402388,42.7624909 493.223284,42.7624909 C491.044179,42.7624909 489.003085,43.1897176 487.1,44.0441709 C485.196915,44.8986242 483.533532,46.0499638 482.109851,47.4981897 C480.686169,48.9464156 479.560299,50.6553222 478.732239,52.6249095 C477.904179,54.5944967 477.490149,56.6799421 477.490149,58.8812455 C477.490149,61.1404779 477.904179,63.2476466 478.732239,65.2027516 C479.560299,67.1578566 480.686169,68.8595221 482.109851,70.307748 C483.533532,71.7559739 485.196915,72.9000724 487.1,73.7400434 C489.003085,74.5800145 491.044179,75 493.223284,75 Z M493.223284,70.1774077 C492.351642,70.1774077 491.530846,69.8805214 490.760896,69.2867487 C489.990945,68.6929761 489.322687,67.8892107 488.756119,66.8754526 C488.189552,65.8616944 487.739204,64.666908 487.405075,63.2910934 C487.070945,61.9152788 486.903881,60.4453295 486.903881,58.8812455 C486.903881,57.3171615 487.070945,55.8544533 487.405075,54.4931209 C487.739204,53.1317886 488.189552,51.9442433 488.756119,50.9304852 C489.322687,49.916727 489.990945,49.1202028 490.760896,48.5409124 C491.530846,47.961622 492.351642,47.6719768 493.223284,47.6719768 C494.094925,47.6719768 494.922985,47.961622 495.707463,48.5409124 C496.49194,49.1202028 497.167463,49.916727 497.73403,50.9304852 C498.300597,51.9442433 498.750945,53.1317886 499.085075,54.4931209 C499.419204,55.8544533 499.586269,57.3171615 499.586269,58.8812455 C499.586269,60.4453295 499.419204,61.9152788 499.085075,63.2910934 C498.750945,64.666908 498.300597,65.8616944 497.73403,66.8754526 C497.167463,67.8892107 496.49194,68.6929761 495.707463,69.2867487 C494.922985,69.8805214 494.094925,70.1774077 493.223284,70.1774077 Z" id="%" fill="#FFFFFF"></path>
            </g>
        </g>
    </g>
</svg>