<?xml version="1.0" encoding="UTF-8"?>
<svg width="47px" height="47px" viewBox="0 0 47 47" version="1.1" xmlns="http://www.w3.org/2000/svg" xmlns:xlink="http://www.w3.org/1999/xlink">
    <title>Group 102 Copy 3</title>
    <defs>
        <path d="M1.78888266,0 C0.812315351,0 0,0.826210826 0,1.73504274 L0,1.73504274 L0,27.2649573 C0,28.2572365 0.812315351,29 1.78888266,29 L1.78888266,29 L15.2868154,29 C16.2625696,29 17.0756981,28.2572365 16.9943852,27.2649573 L16.9943852,27.2649573 L16.9943852,1.73504274 C16.9943852,0.743589744 16.1812567,0 15.2055026,0 L15.2055026,0 L1.78888266,0 Z" id="path-1"></path>
        <path d="M7.31734319,25.2820513 C7.31734319,25.9661538 7.86457865,26.5213675 8.53784904,26.5213675 L8.53784904,26.5213675 C9.21111942,26.5213675 9.75754175,25.9661538 9.75754175,25.2820513 L9.75754175,25.2820513 C9.75754175,24.5979487 9.21111942,24.042735 8.53784904,24.042735 L8.53784904,24.042735 C7.86457865,24.042735 7.31734319,24.5979487 7.31734319,25.2820513 L7.31734319,25.2820513 Z" id="path-3"></path>
    </defs>
    <g id="Page-1" stroke="none" stroke-width="1" fill="none" fill-rule="evenodd">
        <g id="Group-102-Copy-3">
            <g id="Group-10-Copy-2" fill="#FFFFFF" fill-opacity="0.75">
                <circle id="Oval" cx="23.5" cy="23.5" r="23.5"></circle>
            </g>
            <g id="Group" transform="translate(15.000000, 9.000000)">
                <mask id="mask-2" fill="white">
                    <use xlink:href="#path-1"></use>
                </mask>
                <g id="Clip-2"></g>
                <polygon id="Fill-1" fill="#424A60" mask="url(#mask-2)" points="-4.0656424 33.1310541 21.1413405 33.1310541 21.1413405 -4.04843305 -4.0656424 -4.04843305"></polygon>
                <polygon id="Fill-4" fill="#D5D5EA" mask="url(#mask-2)" points="0 21.5641026 16.9951984 21.5641026 16.9951984 1.73586895 0 1.73586895"></polygon>
                <path d="M8.53768641,24.042735 C9.21176992,24.042735 9.75737913,24.5979487 9.75737913,25.2820513 C9.75737913,25.9669801 9.21176992,26.5213675 8.53768641,26.5213675 C7.86441603,26.5213675 7.31799369,25.9669801 7.31799369,25.2820513 C7.31799369,24.5979487 7.86441603,24.042735 8.53768641,24.042735" id="Fill-5" fill="#48A0DC" mask="url(#mask-2)"></path>
                <mask id="mask-4" fill="white">
                    <use xlink:href="#path-3"></use>
                </mask>
                <g id="Clip-8"></g>
                <polygon id="Fill-7" fill="#48A0DC" mask="url(#mask-4)" points="-104.080445 1218.74359 393.554184 1218.74359 393.554184 -2204.24786 -104.080445 -2204.24786"></polygon>
                <polygon id="Fill-9" fill="#48A0DC" mask="url(#mask-4)" points="3.25251392 30.6524217 13.8231842 30.6524217 13.8231842 19.9116809 3.25251392 19.9116809"></polygon>
                <polygon id="Fill-11" fill="#F2F2FD" mask="url(#mask-4)" points="4.2143636 21.5689772 16.9943039 21.5640199 16.9943039 8.50741026 16.9943039 5.38433333 0.955344651 21.5689772"></polygon>
            </g>
        </g>
    </g>
</svg>