<svg width="46" height="60" viewBox="0 0 46 60" fill="none" xmlns="http://www.w3.org/2000/svg">
<mask id="mask0_447_4248" style="mask-type:luminance" maskUnits="userSpaceOnUse" x="0" y="0" width="46" height="60">
<path fill-rule="evenodd" clip-rule="evenodd" d="M0 0H46V60H0V0Z" fill="white"/>
</mask>
<g mask="url(#mask0_447_4248)">
<path d="M23 0L0 9.42V38.1235C0 44.547 3.43377 50.4705 8.98251 53.618L17.8228 58.6325C21.0376 60.456 24.9624 60.456 28.1772 58.6325L37.0175 53.618C42.5662 50.4705 46 44.547 46 38.1235V9.42L23 0Z" fill="url(#paint0_linear_447_4248)"/>
</g>
<path fill-rule="evenodd" clip-rule="evenodd" d="M23.0002 5.28516L4.05078 13.0462V36.6947C4.05078 41.9872 6.88014 46.8677 11.4514 49.4607L18.7346 53.5917C21.3836 55.0942 24.6168 55.0942 27.2658 53.5917L34.549 49.4607C39.1203 46.8677 41.9496 41.9872 41.9496 36.6947V13.0462L23.0002 5.28516Z" fill="url(#paint1_linear_447_4248)"/>
<path d="M21.1045 37.3252L14.9717 32.1382C14.1364 31.4322 14.0264 30.1762 14.7264 29.3332C15.4265 28.4902 16.671 28.3797 17.5058 29.0857L20.723 31.8072L28.299 23.3332C29.0293 22.5167 30.2768 22.4517 31.0858 23.1887C31.8948 23.9252 31.9587 25.1842 31.229 26.0007L21.1045 37.3252Z" fill="url(#paint2_linear_447_4248)"/>
<defs>
<linearGradient id="paint0_linear_447_4248" x1="9.7042" y1="-6.32884" x2="-6.32681" y2="51.9304" gradientUnits="userSpaceOnUse">
<stop stop-color="#414A62"/>
<stop offset="1" stop-color="#647BBA"/>
</linearGradient>
<linearGradient id="paint1_linear_447_4248" x1="-12.1685" y1="24.662" x2="28.6244" y2="68.1393" gradientUnits="userSpaceOnUse">
<stop stop-color="#FAFAFF"/>
<stop offset="1" stop-color="#D7D7E8"/>
</linearGradient>
<linearGradient id="paint2_linear_447_4248" x1="17.9514" y1="21.1305" x2="15.3269" y2="35.9677" gradientUnits="userSpaceOnUse">
<stop stop-color="#6CCEF4"/>
<stop offset="1" stop-color="#00B3F8"/>
</linearGradient>
</defs>
</svg>
