<svg width="39" height="40" viewBox="0 0 39 40" fill="none" xmlns="http://www.w3.org/2000/svg">
<path fill-rule="evenodd" clip-rule="evenodd" d="M0 10.2564L19.4872 0L38.9744 10.2564H0Z" fill="url(#paint0_linear_2845_17852)"/>
<path fill-rule="evenodd" clip-rule="evenodd" d="M12.8005 3.51953L0 10.2563H28.3554C26.8351 8.50918 24.6389 6.99133 21.9397 5.82231C19.2405 4.65329 16.112 3.86501 12.8005 3.51953Z" fill="url(#paint1_linear_2845_17852)"/>
<path fill-rule="evenodd" clip-rule="evenodd" d="M0 10.2578H38.9744V14.3604H0V10.2578Z" fill="url(#paint2_linear_2845_17852)"/>
<path fill-rule="evenodd" clip-rule="evenodd" d="M0 10.2578V14.3604H30.5248C30.2083 12.9309 29.4746 11.5434 28.3554 10.2578H0Z" fill="url(#paint3_linear_2845_17852)"/>
<path fill-rule="evenodd" clip-rule="evenodd" d="M1.02734 14.3594H9.23247L7.18119 17.4363V30.7575L9.23247 33.8466H1.02734L3.07863 30.7553V17.4363L1.02734 14.3594Z" fill="url(#paint4_linear_2845_17852)"/>
<path fill-rule="evenodd" clip-rule="evenodd" d="M29.7422 14.3594H37.9473L35.896 17.4363V30.7575L37.9473 33.8466H29.7422L31.7935 30.7553V17.4363L29.7422 14.3594Z" fill="url(#paint5_linear_2845_17852)"/>
<path fill-rule="evenodd" clip-rule="evenodd" d="M15.3828 14.3594H23.5879L21.5367 17.4363V30.7575L23.5879 33.8466H15.3828L17.4341 30.7553V17.4363L15.3828 14.3594Z" fill="url(#paint6_linear_2845_17852)"/>
<path fill-rule="evenodd" clip-rule="evenodd" d="M0 33.8477H38.9744V40.0015H0V33.8477Z" fill="url(#paint7_linear_2845_17852)"/>
<defs>
<linearGradient id="paint0_linear_2845_17852" x1="-16.6795" y1="4.0203" x2="-13.5798" y2="20.3953" gradientUnits="userSpaceOnUse">
<stop stop-color="#F3F3F3"/>
<stop offset="1" stop-color="#D7D7E8"/>
</linearGradient>
<linearGradient id="paint1_linear_2845_17852" x1="-12.135" y1="6.16021" x2="-10.285" y2="16.9851" gradientUnits="userSpaceOnUse">
<stop stop-color="#F3F3F3"/>
<stop offset="1" stop-color="#D7D7E8"/>
</linearGradient>
<linearGradient id="paint2_linear_2845_17852" x1="-16.6795" y1="11.8659" x2="-16.1687" y2="18.612" gradientUnits="userSpaceOnUse">
<stop stop-color="#F3F3F3"/>
<stop offset="1" stop-color="#D7D7E8"/>
</linearGradient>
<linearGradient id="paint3_linear_2845_17852" x1="-13.0634" y1="11.8659" x2="-12.4136" y2="18.5878" gradientUnits="userSpaceOnUse">
<stop stop-color="#F3F3F3"/>
<stop offset="1" stop-color="#D7D7E8"/>
</linearGradient>
<linearGradient id="paint4_linear_2845_17852" x1="0.00125036" y1="17.0257" x2="9.57216" y2="31.7518" gradientUnits="userSpaceOnUse">
<stop stop-color="#6CCEF4"/>
<stop offset="1" stop-color="#00B3F8"/>
</linearGradient>
<linearGradient id="paint5_linear_2845_17852" x1="28.7161" y1="17.0257" x2="38.287" y2="31.7518" gradientUnits="userSpaceOnUse">
<stop stop-color="#6CCEF4"/>
<stop offset="1" stop-color="#00B3F8"/>
</linearGradient>
<linearGradient id="paint6_linear_2845_17852" x1="14.3567" y1="17.0257" x2="23.9276" y2="31.7518" gradientUnits="userSpaceOnUse">
<stop stop-color="#6CCEF4"/>
<stop offset="1" stop-color="#00B3F8"/>
</linearGradient>
<linearGradient id="paint7_linear_2845_17852" x1="9.81604" y1="34.7488" x2="9.76536" y2="39.0011" gradientUnits="userSpaceOnUse">
<stop stop-color="#414A62"/>
<stop offset="1" stop-color="#647BBA"/>
</linearGradient>
</defs>
</svg>
