<svg width="40" height="40" viewBox="0 0 40 40" fill="none" xmlns="http://www.w3.org/2000/svg">
<path d="M1.66797 13.332H38.3346V33.332C38.3346 34.2161 37.9834 35.0639 37.3583 35.6891C36.7332 36.3142 35.8854 36.6654 35.0013 36.6654H5.0013C4.11725 36.6654 3.2694 36.3142 2.64428 35.6891C2.01916 35.0639 1.66797 34.2161 1.66797 33.332V13.332Z" fill="url(#paint0_linear_2965_17625)"/>
<path d="M2.4987 8.33203H37.4987C37.9407 8.33203 38.3646 8.50763 38.6772 8.82019C38.9898 9.13275 39.1654 9.55667 39.1654 9.9987V14.9987C39.1654 16.7668 38.463 18.4625 37.2127 19.7127C35.9625 20.963 34.2668 21.6654 32.4987 21.6654H7.4987C5.73059 21.6654 4.0349 20.963 2.78465 19.7127C1.53441 18.4625 0.832031 16.7668 0.832031 14.9987V9.9987C0.832031 9.55667 1.00763 9.13275 1.32019 8.82019C1.63275 8.50763 2.05667 8.33203 2.4987 8.33203Z" fill="url(#paint1_linear_2965_17625)"/>
<path d="M14.1654 19.6487H25.832V24.6487C25.832 25.0907 25.6564 25.5146 25.3439 25.8272C25.0313 26.1398 24.6074 26.3154 24.1654 26.3154H15.832C15.39 26.3154 14.9661 26.1398 14.6535 25.8272C14.341 25.5146 14.1654 25.0907 14.1654 24.6487V19.6487Z" fill="url(#paint2_linear_2965_17625)"/>
<path d="M27.5 8.33464H24.1667V5.0013H15.8333V8.33464H12.5V5.0013C12.5 4.11725 12.8512 3.2694 13.4763 2.64428C14.1014 2.01916 14.9493 1.66797 15.8333 1.66797H24.1667C25.0507 1.66797 25.8986 2.01916 26.5237 2.64428C27.1488 3.2694 27.5 4.11725 27.5 5.0013V8.33464Z" fill="url(#paint3_linear_2965_17625)"/>
<path d="M20.8333 18.332H19.1667C18.2462 18.332 17.5 19.0782 17.5 19.9987V21.6654C17.5 22.5858 18.2462 23.332 19.1667 23.332H20.8333C21.7538 23.332 22.5 22.5858 22.5 21.6654V19.9987C22.5 19.0782 21.7538 18.332 20.8333 18.332Z" fill="url(#paint4_linear_2965_17625)"/>
<defs>
<linearGradient id="paint0_linear_2965_17625" x1="-14.0239" y1="22.4782" x2="0.579857" y2="54.3813" gradientUnits="userSpaceOnUse">
<stop stop-color="#F3F3F3"/>
<stop offset="1" stop-color="#D7D7E8"/>
</linearGradient>
<linearGradient id="paint1_linear_2965_17625" x1="17.1063" y1="20.6247" x2="16.908" y2="25.2234" gradientUnits="userSpaceOnUse">
<stop stop-color="#414A62"/>
<stop offset="1" stop-color="#647BBA"/>
</linearGradient>
<linearGradient id="paint2_linear_2965_17625" x1="17.1063" y1="20.6247" x2="16.908" y2="25.2234" gradientUnits="userSpaceOnUse">
<stop stop-color="#414A62"/>
<stop offset="1" stop-color="#647BBA"/>
</linearGradient>
<linearGradient id="paint3_linear_2965_17625" x1="10.6242" y1="2.58015" x2="11.483" y2="9.6416" gradientUnits="userSpaceOnUse">
<stop stop-color="#6CCEF4"/>
<stop offset="1" stop-color="#00B3F8"/>
</linearGradient>
<linearGradient id="paint4_linear_2965_17625" x1="16.8747" y1="19.0162" x2="18.243" y2="24.0162" gradientUnits="userSpaceOnUse">
<stop stop-color="#6CCEF4"/>
<stop offset="1" stop-color="#00B3F8"/>
</linearGradient>
</defs>
</svg>
