<svg width="52" height="52" viewBox="0 0 52 52" fill="none" xmlns="http://www.w3.org/2000/svg">
<path d="M21.3028 21.6401C20.8843 20.9454 20.015 19.4951 13.7668 19.3286C9.48495 19.1823 6.99058 19.7064 6.12527 20.9414C5.74745 21.5345 5.3737 22.9726 5.73933 26.4542C6.37308 32.2758 9.29808 32.4301 13.0071 32.6211L13.2875 32.6373C13.6896 32.6576 14.0675 32.6698 14.425 32.6698C19.6818 32.6698 20.6 30.3745 21.2743 27.1936C21.8756 24.4839 21.8878 22.6192 21.3028 21.6401Z" fill="url(#paint0_linear_2872_18150)"/>
<path d="M45.7847 20.9253C44.9316 19.7025 42.4372 19.1825 38.1554 19.3287C31.9032 19.4993 31.0338 20.9456 30.6154 21.6403C30.0304 22.6193 30.0385 24.484 30.6479 27.1815C31.3263 30.3706 32.2404 32.6618 37.4972 32.6618C37.8547 32.6618 38.2366 32.6497 38.6347 32.6293L38.9151 32.6131C42.6201 32.4222 45.5491 32.2678 46.1829 26.4462C46.5444 22.9728 46.1707 21.5347 45.7847 20.9253Z" fill="url(#paint1_linear_2872_18150)"/>
<path d="M50.2938 19.4352C50.2938 19.4352 49.8875 18.7446 42.5628 18.0499C34.8725 17.3186 31.0456 18.8624 29.4612 19.8415C29.1769 19.9633 28.6894 20.0852 28.1166 20.0446H27.9947C27.2228 20.004 26.5281 19.9633 25.7156 19.9633H25.675C25.2281 19.9633 24.2491 20.004 23.5584 20.0446C23.2334 20.0852 22.9491 20.0446 22.7053 19.9633C21.2388 18.9883 17.4159 17.278 9.40062 18.0499C2.07187 18.7446 1.66562 19.4352 1.66562 19.4352L1.625 22.2018C1.625 22.2018 2.72187 22.5268 3.41656 23.3799C4.10719 24.233 4.43219 29.1161 5.61437 31.3952C7.40188 34.9377 16.2337 34.044 16.2337 34.044C16.2337 34.044 19.8534 34.3283 21.6044 31.2774C23.1116 28.6733 23.7209 25.009 23.8834 24.1152C24.2491 23.7496 24.9397 23.3027 25.9594 23.2621C27.0969 23.2621 27.8322 23.8308 28.1572 24.2371C28.3197 25.334 28.9291 28.7952 30.3956 31.2774C32.1466 34.3283 35.7663 34.044 35.7663 34.044C35.7663 34.044 44.5981 34.9377 46.3856 31.3993C47.5231 29.1202 47.8522 24.2371 48.5834 23.384C49.2741 22.4902 50.375 22.2058 50.375 22.2058L50.2938 19.4352ZM20.8731 27.1011C20.1825 30.3552 19.2847 32.553 13.3047 32.228C9.43719 32.0249 6.75187 32.0249 6.1425 26.4105C5.77688 22.9127 6.18313 21.6086 6.4675 21.1618C6.75187 20.7555 7.77156 19.5327 13.7516 19.7358C19.7316 19.8983 20.5888 21.243 20.9544 21.8524C21.32 22.4618 21.6044 23.8471 20.8731 27.1011ZM45.7762 26.4105C45.1669 32.0249 42.4816 32.0249 38.6141 32.228C32.6341 32.553 31.7362 30.3552 31.0456 27.1011C30.3144 23.8471 30.5988 22.4618 30.9644 21.8524C31.33 21.243 32.1872 19.8983 38.1672 19.7358C44.1472 19.5327 45.1669 20.7515 45.4512 21.1618C45.7356 21.6086 46.1419 22.9086 45.7762 26.4105Z" fill="url(#paint2_linear_2872_18150)"/>
<path d="M10.8967 21.2141C12.6557 20.8728 13.2489 21.726 13.0782 22.4897C12.7654 23.8994 11.4085 23.1478 9.42198 24.3585C8.5851 24.8703 8.24385 25.236 7.9351 25.2238C7.63854 25.2116 7.3826 24.9069 7.52479 24.33C7.78073 23.2819 8.20729 21.7341 10.8967 21.2141Z" fill="url(#paint3_linear_2872_18150)"/>
<path d="M33.9857 21.6153C34.7048 21.2131 36.7238 20.8515 36.9391 21.9118C37.1585 23.0046 36.1307 23.3053 35.4035 23.5531C33.6851 24.1381 33.4007 24.9709 33.0432 25.1984C32.8035 25.3487 32.0966 25.69 32.1738 24.654C32.2632 23.3378 32.6938 22.3425 33.9857 21.6153Z" fill="url(#paint4_linear_2872_18150)"/>
<defs>
<linearGradient id="paint0_linear_2872_18150" x1="9.65577" y1="21.2618" x2="9.08089" y2="30.4624" gradientUnits="userSpaceOnUse">
<stop stop-color="#414A62"/>
<stop offset="1" stop-color="#647BBA"/>
</linearGradient>
<linearGradient id="paint1_linear_2872_18150" x1="34.2501" y1="21.2606" x2="33.676" y2="30.4558" gradientUnits="userSpaceOnUse">
<stop stop-color="#414A62"/>
<stop offset="1" stop-color="#647BBA"/>
</linearGradient>
<linearGradient id="paint2_linear_2872_18150" x1="-19.2381" y1="24.2405" x2="-13.1169" y2="49.7078" gradientUnits="userSpaceOnUse">
<stop stop-color="#F3F3F3"/>
<stop offset="1" stop-color="#D7D7E8"/>
</linearGradient>
<linearGradient id="paint3_linear_2872_18150" x1="6.78133" y1="21.696" x2="7.62216" y2="25.9221" gradientUnits="userSpaceOnUse">
<stop stop-color="#6CCEF4"/>
<stop offset="1" stop-color="#00B3F8"/>
</linearGradient>
<linearGradient id="paint4_linear_2872_18150" x1="31.5675" y1="21.784" x2="32.5712" y2="26.0172" gradientUnits="userSpaceOnUse">
<stop stop-color="#6CCEF4"/>
<stop offset="1" stop-color="#00B3F8"/>
</linearGradient>
</defs>
</svg>
