<svg width="40" height="40" viewBox="0 0 40 40" fill="none" xmlns="http://www.w3.org/2000/svg">
<g clip-path="url(#clip0_2845_17801)">
<path d="M26.3025 10.9605C26.3025 11.4187 25.9133 11.7828 25.4362 11.7828C24.9654 11.7828 24.5762 11.4188 24.5762 10.9605C24.5762 9.56695 24.3125 8.18578 23.8542 6.94289C22.9691 4.49477 21.3558 2.54867 19.5542 1.88969C19.1211 1.72633 18.6816 1.64477 18.2359 1.64477C17.5266 1.64477 16.8235 1.85828 16.1581 2.24109C16.1581 2.24109 16.1581 2.24109 16.1519 2.24734C14.727 3.08227 13.4777 4.71445 12.7055 6.69812C12.1971 8.01016 11.8958 9.47273 11.8958 10.9605C11.8958 11.4187 11.5129 11.7828 11.0358 11.7828C10.565 11.7828 10.1758 11.4188 10.1758 10.9605C10.1758 9.5293 10.4395 8.04773 10.9228 6.66047C12.172 3.02578 14.9027 0 18.2359 0C18.688 0 19.1273 0.0565625 19.5542 0.163359C20.8223 0.470781 21.971 1.21789 22.9503 2.24109C22.9503 2.24734 22.9566 2.24734 22.9566 2.24734C24.1494 3.50281 25.0847 5.17273 25.6622 6.9743C26.0765 8.28008 26.3025 9.63594 26.3025 10.9605Z" fill="url(#paint0_linear_2845_17801)"/>
<path d="M34.5652 38.2164L6.25391 39.993L6.505 30.2943L6.68703 23.2886L6.69961 22.8555L7.10766 6.8857V6.75391L7.11391 6.57812L10.9243 6.65969L12.7071 6.69734L13.5357 6.70992L15.3185 6.75391L23.8559 6.94211L25.6637 6.97352L26.5175 6.99234L28.3128 7.03633L30.6355 7.08648L30.7987 7.09289L31.213 7.09906L32.8388 7.13047L32.933 8.81273L32.9581 9.30242L34.5652 38.2164Z" fill="url(#paint1_linear_2845_17801)"/>
<path d="M7.38227 6.72266L6.585 30.2191L6.25234 39.9931V39.9994L3.77906 39.1081L2.35406 38.5932L0 37.7395L0.106719 36.4024V36.3459L0.163203 35.6555L2.4168 6.82305L5.0282 6.9925L7.10609 6.75406L7.38227 6.72266Z" fill="url(#paint2_linear_2845_17801)"/>
<g opacity="0.5">
<path d="M0.355469 37.6454L6.13258 39.7509L4.06336 36.875L0.355469 37.6454Z" fill="#E9E9F4"/>
</g>
<g opacity="0.1">
<path d="M7.23086 6.82031L7.15211 6.88328L5.10156 7.26078L4.0625 36.8752L6.13172 39.7512L7.23086 6.82031Z" fill="#D5D5EA"/>
</g>
<path d="M13.6702 12.5206C14.3358 12.5206 14.8755 12.0053 14.8755 11.3697C14.8755 10.734 14.3358 10.2188 13.6702 10.2188C13.0045 10.2188 12.4648 10.734 12.4648 11.3697C12.4648 12.0053 13.0045 12.5206 13.6702 12.5206Z" fill="#43C4F6"/>
<path d="M28.0725 12.5206C28.7382 12.5206 29.2778 12.0053 29.2778 11.3697C29.2778 10.734 28.7382 10.2188 28.0725 10.2188C27.4068 10.2188 26.8672 10.734 26.8672 11.3697C26.8672 12.0053 27.4068 12.5206 28.0725 12.5206Z" fill="#43C4F6"/>
<path d="M28.9315 10.9605C28.9315 11.4187 28.5423 11.7828 28.0715 11.7828C27.5944 11.7828 27.2115 11.4188 27.2115 10.9605C27.2115 10.8286 27.2115 10.7032 27.2052 10.5712V10.5273C27.155 9.3032 26.9102 8.09797 26.5147 6.99312C25.7552 4.87758 24.4557 3.12 22.9554 2.24734C22.9554 2.24734 22.9491 2.24734 22.9491 2.24109C22.2837 1.85828 21.5805 1.64477 20.8713 1.64477C20.4255 1.64477 19.9862 1.72633 19.553 1.88969C17.7952 2.53 16.2134 4.39422 15.3157 6.75469C14.8637 7.93477 14.5812 9.24055 14.5373 10.5712V10.5776C14.531 10.7094 14.531 10.8286 14.531 10.9605C14.531 11.4187 14.1418 11.7828 13.6647 11.7828C13.1939 11.7828 12.8047 11.4188 12.8047 10.9605C12.8047 10.8286 12.8047 10.6906 12.8172 10.5524C12.8548 9.2657 13.1059 7.95359 13.5328 6.7107C14.1103 5.00953 15.0143 3.44016 16.1505 2.24734C16.1567 2.24109 16.1567 2.24109 16.1567 2.24109C17.136 1.21797 18.2848 0.470781 19.5528 0.163359C19.9798 0.0565625 20.4193 0 20.8713 0C22.3151 0 23.6396 0.571328 24.7821 1.50664C24.8009 1.51922 24.8198 1.5318 24.8386 1.55062C25.1462 1.79539 25.4349 2.07781 25.7112 2.38555C25.73 2.40422 25.7488 2.42313 25.7613 2.44195C26.885 3.68484 27.7701 5.30453 28.31 7.03711C28.5109 7.68367 28.6678 8.35531 28.7745 9.02703C28.8562 9.53555 28.9001 10.0439 28.9189 10.5524C28.9315 10.6906 28.9315 10.8286 28.9315 10.9605Z" fill="url(#paint3_linear_2845_17801)"/>
<path opacity="0.05" d="M34.5636 38.2159L6.25234 39.9924V39.9987L3.77906 39.1073L2.35406 38.5925L0 37.7388L0.106719 36.4017L0.138125 36.3766L4.21844 32.4783L6.44695 30.3439L6.50344 30.2938L6.585 30.2184L27.2065 10.5259L28.7758 9.0257L30.7971 7.09234L30.8034 7.08594L31.2115 7.09234L32.8373 7.12992L32.9315 8.81219L32.9566 9.30188L34.5636 38.2159Z" fill="#D5D5EA"/>
</g>
<defs>
<linearGradient id="paint0_linear_2845_17801" x1="14.2374" y1="1.72542" x2="13.7898" y2="9.84376" gradientUnits="userSpaceOnUse">
<stop stop-color="#414A62"/>
<stop offset="1" stop-color="#647BBA"/>
</linearGradient>
<linearGradient id="paint1_linear_2845_17801" x1="-5.86221" y1="19.6761" x2="21.402" y2="51.7893" gradientUnits="userSpaceOnUse">
<stop stop-color="#F3F3F3"/>
<stop offset="1" stop-color="#D7D7E8"/>
</linearGradient>
<linearGradient id="paint2_linear_2845_17801" x1="-3.15932" y1="19.7665" x2="12.3388" y2="24.5461" gradientUnits="userSpaceOnUse">
<stop stop-color="#F3F3F3"/>
<stop offset="1" stop-color="#D7D7E8"/>
</linearGradient>
<linearGradient id="paint3_linear_2845_17801" x1="16.8664" y1="1.72542" x2="16.4187" y2="9.84376" gradientUnits="userSpaceOnUse">
<stop stop-color="#414A62"/>
<stop offset="1" stop-color="#647BBA"/>
</linearGradient>
<clipPath id="clip0_2845_17801">
<rect width="40" height="40" fill="white"/>
</clipPath>
</defs>
</svg>
