<svg width="40" height="40" viewBox="0 0 40 40" fill="none" xmlns="http://www.w3.org/2000/svg">
<path d="M34.5984 35.9862H30.4359L30.4234 34.9404C30.4276 34.9112 30.4193 32.2737 30.1318 28.2404C29.7818 23.332 29.2818 18.732 23.5859 15.1612L24.5443 14.1445C27.6193 15.9779 30.2568 18.5195 31.5318 20.682C33.1859 23.4945 33.7526 24.9904 34.2484 27.5904C35.0943 31.9904 34.6193 35.8445 34.5984 35.9862Z" fill="url(#paint0_linear_2845_17889)"/>
<path d="M22.0948 34.8997C22.0948 35.4831 22.0406 36.0497 21.9365 36.5997H5.04896C4.94479 36.0497 4.89062 35.4789 4.89062 34.8997C4.89062 33.8914 5.05729 32.9206 5.35729 32.0164C6.51979 28.5539 9.72396 26.0664 13.4906 26.0664C17.2573 26.0664 20.4615 28.5539 21.624 32.0164C21.9323 32.9206 22.0948 33.8914 22.0948 34.8997Z" fill="url(#paint1_linear_2845_17889)"/>
<path d="M38.638 36.194C38.638 36.8273 38.3797 37.3982 37.9672 37.8148C37.5547 38.2315 36.9797 38.4857 36.3464 38.4857H3.59635C2.32969 38.4857 1.30469 37.4607 1.30469 36.194C1.30469 35.5607 1.56302 34.9898 1.97552 34.5732C2.39219 34.1607 2.96302 33.9023 3.59635 33.9023H36.3464C37.613 33.9023 38.638 34.9273 38.638 36.194Z" fill="url(#paint2_linear_2845_17889)"/>
<path d="M38.3532 15.6086C38.7615 15.6086 38.9199 14.9378 38.5824 14.6545C37.3657 13.6295 34.999 12.1461 31.5115 12.1253C27.999 12.1003 25.6407 13.6295 24.4449 14.6753C24.1115 14.967 24.274 15.6253 24.6782 15.6253L38.3532 15.6086Z" fill="url(#paint3_linear_2845_17889)"/>
<path d="M34.4852 6.19468C34.7727 5.90718 34.4143 5.31968 33.9727 5.35718C32.3852 5.49468 29.6643 6.11968 27.1852 8.56968C24.6852 11.0363 24.0977 13.7822 23.9893 15.3697C23.9602 15.8113 24.5393 16.1655 24.8268 15.878L34.4852 6.19468Z" fill="url(#paint4_linear_2845_17889)"/>
<path d="M25.3133 15.308C25.6008 15.0205 25.2425 14.433 24.8008 14.4705C23.2133 14.608 20.4925 15.233 18.0133 17.683C15.5133 20.1496 14.9258 22.8955 14.8175 24.483C14.7883 24.9246 15.3675 25.2788 15.655 24.9913L25.3133 15.308Z" fill="url(#paint5_linear_2845_17889)"/>
<path d="M25.6985 1.74467C25.6985 1.33634 25.0276 1.178 24.7443 1.5155C23.7193 2.73217 22.236 5.09884 22.2151 8.58634C22.1901 12.0988 23.7193 14.4572 24.7651 15.653C25.0568 15.9863 25.7151 15.8238 25.7151 15.4197L25.6985 1.74467Z" fill="url(#paint6_linear_2845_17889)"/>
<path d="M25.6985 14.5533C25.6985 14.1449 25.0276 13.9866 24.7443 14.3241C23.7193 15.5408 22.236 17.9074 22.2151 21.3949C22.1901 24.9074 23.7193 27.2658 24.7651 28.4616C25.0568 28.7949 25.7151 28.6324 25.7151 28.2283L25.6985 14.5533Z" fill="url(#paint7_linear_2845_17889)"/>
<path d="M25.1032 15.7141C25.5115 15.7141 25.6699 15.0433 25.3324 14.7599C24.1157 13.7349 21.749 12.2516 18.2615 12.2308C14.749 12.2058 12.3907 13.7349 11.1949 14.7808C10.8615 15.0724 11.024 15.7308 11.4282 15.7308L25.1032 15.7141Z" fill="url(#paint8_linear_2845_17889)"/>
<defs>
<linearGradient id="paint0_linear_2845_17889" x1="18.8081" y1="22.706" x2="35.8634" y2="34.8251" gradientUnits="userSpaceOnUse">
<stop stop-color="#F3F3F3"/>
<stop offset="1" stop-color="#D7D7E8"/>
</linearGradient>
<linearGradient id="paint1_linear_2845_17889" x1="-2.47209" y1="30.1953" x2="3.95347" y2="44.7851" gradientUnits="userSpaceOnUse">
<stop stop-color="#F3F3F3"/>
<stop offset="1" stop-color="#D7D7E8"/>
</linearGradient>
<linearGradient id="paint2_linear_2845_17889" x1="-3.36404" y1="34.5295" x2="-3.19871" y2="39.4505" gradientUnits="userSpaceOnUse">
<stop stop-color="#6CCEF4"/>
<stop offset="1" stop-color="#00B3F8"/>
</linearGradient>
<linearGradient id="paint3_linear_2845_17889" x1="27.9176" y1="12.6376" x2="27.8736" y2="15.0558" gradientUnits="userSpaceOnUse">
<stop stop-color="#414A62"/>
<stop offset="1" stop-color="#647BBA"/>
</linearGradient>
<linearGradient id="paint4_linear_2845_17889" x1="26.658" y1="6.91156" x2="26.1056" y2="14.2137" gradientUnits="userSpaceOnUse">
<stop stop-color="#414A62"/>
<stop offset="1" stop-color="#647BBA"/>
</linearGradient>
<linearGradient id="paint5_linear_2845_17889" x1="17.4862" y1="16.0248" x2="16.9337" y2="23.327" gradientUnits="userSpaceOnUse">
<stop stop-color="#414A62"/>
<stop offset="1" stop-color="#647BBA"/>
</linearGradient>
<linearGradient id="paint6_linear_2845_17889" x1="23.0964" y1="3.45537" x2="20.2424" y2="12.5841" gradientUnits="userSpaceOnUse">
<stop stop-color="#414A62"/>
<stop offset="1" stop-color="#647BBA"/>
</linearGradient>
<linearGradient id="paint7_linear_2845_17889" x1="23.0964" y1="16.264" x2="20.2424" y2="25.3927" gradientUnits="userSpaceOnUse">
<stop stop-color="#414A62"/>
<stop offset="1" stop-color="#647BBA"/>
</linearGradient>
<linearGradient id="paint8_linear_2845_17889" x1="24.699" y1="14.8016" x2="14.8604" y2="18.0287" gradientUnits="userSpaceOnUse">
<stop stop-color="#414A62"/>
<stop offset="1" stop-color="#647BBA"/>
</linearGradient>
</defs>
</svg>
