<svg width="12" height="14" viewBox="0 0 12 14" fill="none" xmlns="http://www.w3.org/2000/svg">
<path d="M1.33333 13.6654C0.966667 13.6654 0.652778 13.5348 0.391667 13.2737C0.130556 13.0126 0 12.6987 0 12.332V2.9987C0 2.63203 0.130556 2.31814 0.391667 2.05703C0.652778 1.79592 0.966667 1.66536 1.33333 1.66536H2V0.332031H3.33333V1.66536H8.66667V0.332031H10V1.66536H10.6667C11.0333 1.66536 11.3472 1.79592 11.6083 2.05703C11.8694 2.31814 12 2.63203 12 2.9987V12.332C12 12.6987 11.8694 13.0126 11.6083 13.2737C11.3472 13.5348 11.0333 13.6654 10.6667 13.6654H1.33333ZM1.33333 12.332H10.6667V5.66536H1.33333V12.332ZM1.33333 4.33203H10.6667V2.9987H1.33333V4.33203Z" fill="#757583"/>
</svg>
