<svg width="14" height="14" viewBox="0 0 14 14" fill="none" xmlns="http://www.w3.org/2000/svg">
<path d="M9.1987 10.132L10.132 9.1987L7.66536 6.73203V3.66536H6.33203V7.26536L9.1987 10.132ZM6.9987 13.6654C6.07648 13.6654 5.20981 13.4904 4.3987 13.1404C3.58759 12.7904 2.88203 12.3154 2.28203 11.7154C1.68203 11.1154 1.20703 10.4098 0.857031 9.5987C0.507031 8.78759 0.332031 7.92092 0.332031 6.9987C0.332031 6.07648 0.507031 5.20981 0.857031 4.3987C1.20703 3.58759 1.68203 2.88203 2.28203 2.28203C2.88203 1.68203 3.58759 1.20703 4.3987 0.857031C5.20981 0.507031 6.07648 0.332031 6.9987 0.332031C7.92092 0.332031 8.78759 0.507031 9.5987 0.857031C10.4098 1.20703 11.1154 1.68203 11.7154 2.28203C12.3154 2.88203 12.7904 3.58759 13.1404 4.3987C13.4904 5.20981 13.6654 6.07648 13.6654 6.9987C13.6654 7.92092 13.4904 8.78759 13.1404 9.5987C12.7904 10.4098 12.3154 11.1154 11.7154 11.7154C11.1154 12.3154 10.4098 12.7904 9.5987 13.1404C8.78759 13.4904 7.92092 13.6654 6.9987 13.6654ZM6.9987 12.332C8.47647 12.332 9.73481 11.8126 10.7737 10.7737C11.8126 9.73481 12.332 8.47647 12.332 6.9987C12.332 5.52092 11.8126 4.26259 10.7737 3.2237C9.73481 2.18481 8.47647 1.66536 6.9987 1.66536C5.52092 1.66536 4.26259 2.18481 3.2237 3.2237C2.18481 4.26259 1.66536 5.52092 1.66536 6.9987C1.66536 8.47647 2.18481 9.73481 3.2237 10.7737C4.26259 11.8126 5.52092 12.332 6.9987 12.332Z" fill="#757583"/>
</svg>
