<svg width="19" height="21" viewBox="0 0 19 21" fill="none" xmlns="http://www.w3.org/2000/svg">
<path fill-rule="evenodd" clip-rule="evenodd" d="M16.4433 10.6426V10.6426L11.7305 15.176L18.4269 20.8598V8.73438L16.4433 10.6426Z" fill="#F2F2FD"/>
<path fill-rule="evenodd" clip-rule="evenodd" d="M0.570312 8.73438V20.8598L7.26674 15.176L0.570312 8.73438Z" fill="#F2F2FD"/>
<path fill-rule="evenodd" clip-rule="evenodd" d="M7.26674 15.1758L0.570312 20.8596H9.49888V17.323L7.26674 15.1758Z" fill="#D5D5EA"/>
<path fill-rule="evenodd" clip-rule="evenodd" d="M9.5 17.323V20.8596H18.4286L11.7321 15.1758L9.5 17.323Z" fill="#D5D5EA"/>
<path fill-rule="evenodd" clip-rule="evenodd" d="M2.55409 6.82422L0.570312 8.73251H2.55394L2.55409 6.82422Z" fill="#00B1F2"/>
<path fill-rule="evenodd" clip-rule="evenodd" d="M18.4292 8.73261L16.4453 6.82422L16.4455 8.73261H18.4292Z" fill="#00B1F2"/>
<path fill-rule="evenodd" clip-rule="evenodd" d="M9.49997 0.144531L6.33594 3.18817L12.656 3.18054L9.49997 0.144531Z" fill="#00B1F2"/>
<path fill-rule="evenodd" clip-rule="evenodd" d="M16.4454 10.6426L18.429 8.73438H16.4453L16.4454 10.6426Z" fill="#8A8A96"/>
<path fill-rule="evenodd" clip-rule="evenodd" d="M9.49888 17.3232L2.55375 10.6424L2.55394 8.73438H0.570312L7.26674 15.176L9.49888 17.3232Z" fill="#8A8A96"/>
<path fill-rule="evenodd" clip-rule="evenodd" d="M2.55469 10.6413L9.49983 17.3221L11.732 15.1749L16.4448 10.6415V10.6415L16.4447 8.73327L16.4445 6.82488L16.4443 3.17578L12.6559 3.18043L6.33579 3.18806L2.55538 3.19266L2.55503 6.82498L2.55489 8.73327L2.55469 10.6413ZM5.03554 9.2385H13.9641V10.7542H5.03554V9.2385ZM5.03554 6.20714V7.72282H13.9641V6.20714H5.03554Z" fill="#424A60"/>
<rect x="5.03516" y="6.20703" width="8.92857" height="1.51568" fill="white"/>
<rect x="5.03516" y="9.23828" width="8.92857" height="1.51568" fill="white"/>
</svg>
