<svg width="22" height="22" viewBox="0 0 22 22" fill="currentColor" xmlns="http://www.w3.org/2000/svg">
<path fill-rule="evenodd" clip-rule="evenodd" d="M9.9449 2.58203C7.61949 2.58203 5.73438 4.46715 5.73438 6.79256C5.73438 9.11797 7.61949 11.0031 9.9449 11.0031C12.2703 11.0031 14.1554 9.11797 14.1554 6.79256C14.1554 4.46715 12.2703 2.58203 9.9449 2.58203ZM6.78906 6.78878C6.78906 5.04472 8.2029 3.63088 9.94696 3.63088C11.691 3.63088 13.1049 5.04472 13.1049 6.78878C13.1049 8.53284 11.691 9.94667 9.94696 9.94667C8.2029 9.94667 6.78906 8.53284 6.78906 6.78878ZM2.57812 14.1626C2.57812 12.991 3.52865 12.0573 4.69286 12.0573H13.8108C13.695 12.3868 13.6308 12.7415 13.6308 13.1099H4.69286C4.10234 13.1099 3.63076 13.5805 3.63076 14.1626C3.63076 15.5405 4.28549 16.5668 5.39181 17.271C6.51813 17.9899 8.12023 18.3731 9.94655 18.3731C10.6918 18.3731 11.3992 18.3099 12.0518 18.1857V19.2552C11.3802 19.3699 10.6729 19.4257 9.94655 19.4257C7.99391 19.4257 6.17497 19.0194 4.82549 18.1594C3.45497 17.2857 2.57812 15.9415 2.57812 14.1626ZM14.6844 13.1073V14.1599H14.1581C13.5767 14.1599 13.1055 14.6312 13.1055 15.2126V19.4231C13.1055 20.0044 13.5767 20.4757 14.1581 20.4757H19.4213C20.0026 20.4757 20.4739 20.0044 20.4739 19.4231V15.2126C20.4739 14.6312 20.0026 14.1599 19.4213 14.1599H18.8949V13.1073C18.8949 11.9446 17.9524 11.002 16.7897 11.002C15.627 11.002 14.6844 11.9446 14.6844 13.1073ZM15.7344 13.1068V14.1565H17.8396V13.1068C17.8396 12.5271 17.3684 12.0571 16.787 12.0571C16.2057 12.0571 15.7344 12.5271 15.7344 13.1068ZM16.7895 16.5334C17.2255 16.5334 17.5789 16.8858 17.5789 17.3206C17.5789 17.7554 17.2255 18.1079 16.7895 18.1079C16.3535 18.1079 16 17.7554 16 17.3206C16 16.8858 16.3535 16.5334 16.7895 16.5334Z" />
</svg>
