<svg width="14" height="18" viewBox="0 0 14 18" fill="none" xmlns="http://www.w3.org/2000/svg">
<mask id="mask0_2375_1459" style="mask-type:luminance" maskUnits="userSpaceOnUse" x="0" y="7" width="14" height="11">
<path fill-rule="evenodd" clip-rule="evenodd" d="M0 7.92969H14V17.999H0V7.92969Z" fill="white"/>
</mask>
<g mask="url(#mask0_2375_1459)">
<path fill-rule="evenodd" clip-rule="evenodd" d="M0 15.4452C0 16.8535 3.14037 17.9991 7 17.9991C10.8606 17.9991 14 16.8535 14 15.4452C14 11.7287 11.5698 8.62428 8.35783 7.92969C7.92809 8.07686 7.47716 8.17745 7 8.17745C6.52284 8.17745 6.07292 8.07686 5.64217 7.92969C2.43018 8.62428 0 11.7287 0 15.4452Z" fill="white"/>
</g>
<path fill-rule="evenodd" clip-rule="evenodd" d="M7.06251 0C4.83729 0 3.02734 1.89971 3.02734 4.23529C3.02734 5.99895 4.06194 7.51192 5.52622 8.14809C6.00031 8.35343 6.5188 8.47059 7.06251 8.47059C7.60621 8.47059 8.12471 8.35343 8.5988 8.14809C10.0631 7.51192 11.0977 5.99895 11.0977 4.23529C11.0977 1.89971 9.28773 0 7.06251 0Z" fill="white"/>
<path d="M7.06251 0C4.83729 0 3.02734 1.89971 3.02734 4.23529C3.02734 5.99895 4.06194 7.51192 5.52622 8.14809C6.00031 8.35343 6.5188 8.47059 7.06251 8.47059C7.60621 8.47059 8.12471 8.35343 8.5988 8.14809C10.0631 7.51192 11.0977 5.99895 11.0977 4.23529C11.0977 1.89971 9.28773 0 7.06251 0" stroke="#454545" stroke-width="1.02097"/>
</svg>
