<svg width="12" height="12" viewBox="0 0 12 12" fill="currentColor" xmlns="http://www.w3.org/2000/svg">
<path fill-rule="evenodd" clip-rule="evenodd" d="M6 12C9.31371 12 12 9.31371 12 6C12 2.68629 9.31371 0 6 0C2.68629 0 0 2.68629 0 6C0 9.31371 2.68629 12 6 12ZM6.35112 7.36194V7.13594C6.35112 6.86473 6.40385 6.64877 6.50932 6.48806C6.61479 6.32734 6.82321 6.12478 7.1346 5.88036C7.49955 5.59576 7.75653 5.36473 7.90553 5.18728C8.05452 5.00982 8.16585 4.82316 8.23951 4.62729C8.31317 4.43142 8.35 4.20792 8.35 3.95681C8.35 3.39096 8.15748 2.94732 7.77243 2.62589C7.38739 2.30446 6.86674 2.14375 6.21049 2.14375C5.43371 2.14375 4.70547 2.33292 4.02578 2.71127L4.44766 3.5952C4.70547 3.46797 4.96998 3.35915 5.24118 3.26875C5.51239 3.17835 5.80703 3.13315 6.12511 3.13315C6.47667 3.13315 6.74621 3.20848 6.93371 3.35915C7.12121 3.50982 7.21496 3.72578 7.21496 4.00703C7.21496 4.2481 7.1572 4.45569 7.04169 4.6298C6.92617 4.80391 6.6692 5.04833 6.27076 5.36306C5.93594 5.62422 5.70156 5.87701 5.56763 6.12143C5.43371 6.36585 5.36674 6.67221 5.36674 7.04051V7.36194H6.35112ZM5.89844 9.7365C6.13616 9.7365 6.31948 9.66702 6.44838 9.52807C6.57729 9.38912 6.64174 9.20078 6.64174 8.96306C6.64174 8.72199 6.57813 8.53532 6.45089 8.40307C6.32366 8.27081 6.13951 8.20469 5.89844 8.20469C5.40625 8.20469 5.16016 8.45748 5.16016 8.96306C5.16016 9.20748 5.22377 9.39749 5.35101 9.53309C5.47824 9.66869 5.66071 9.7365 5.89844 9.7365Z" />
</svg>
