<svg width="26" height="26" viewBox="0 0 26 26" fill="currentColor" xmlns="http://www.w3.org/2000/svg">
<path fill-rule="evenodd" clip-rule="evenodd" d="M15.2305 3.52344C11.3855 3.52344 8.35547 6.55344 8.35547 10.3984C8.35547 10.8947 8.40547 11.3934 8.50797 11.8672C8.58047 12.2047 8.49797 12.4972 8.33047 12.6647L2.65547 18.3397C2.30313 18.6916 2.10524 19.1692 2.10547 19.6672V21.6484C2.10547 22.684 2.94494 23.5234 3.98047 23.5234H6.48047C7.516 23.5234 8.35547 22.684 8.35547 21.6484V21.0234H9.60547C9.93699 21.0234 10.2549 20.8917 10.4894 20.6573C10.7238 20.4229 10.8555 20.105 10.8555 19.7734V18.5234H12.1055C12.7958 18.5234 13.3555 17.9638 13.3555 17.2734V17.0484C13.9717 17.2159 14.6142 17.2734 15.2305 17.2734C19.0755 17.2734 22.1055 14.2434 22.1055 10.3984C22.1055 6.55344 19.0755 3.52344 15.2305 3.52344ZM18.3555 8.52315C18.3555 9.2135 17.7958 9.77315 17.1055 9.77315C16.4151 9.77315 15.8555 9.2135 15.8555 8.52315C15.8555 7.83279 16.4151 7.27315 17.1055 7.27315C17.7958 7.27315 18.3555 7.83279 18.3555 8.52315ZM15.2305 4.77073C12.0755 4.77073 9.60547 7.24073 9.60547 10.3957C9.60435 10.8006 9.64583 11.2045 9.72922 11.6007C9.86672 12.2407 9.75422 13.0057 9.21422 13.5457L3.53797 19.222C3.42113 19.3391 3.3555 19.4978 3.35547 19.6632V21.6457C3.35547 21.9909 3.63529 22.2707 3.98047 22.2707H6.48047C6.82565 22.2707 7.10547 21.9909 7.10547 21.6457V21.0207C7.10547 20.3304 7.66511 19.7707 8.35547 19.7707H9.60547V18.5207C9.60547 17.8304 10.1651 17.2707 10.8555 17.2707H12.1055V16.1457C12.1055 15.929 12.2177 15.7278 12.4021 15.6139C12.5865 15.5001 12.8167 15.4899 13.0105 15.587C13.6392 15.902 14.4055 16.0207 15.2305 16.0207C18.3855 16.0207 20.8555 13.5507 20.8555 10.3957C20.8555 7.24073 18.3855 4.77073 15.2305 4.77073Z" />
</svg>
