<svg width="16" height="16" viewBox="0 0 16 16" fill="currentColor" xmlns="http://www.w3.org/2000/svg">
<path d="M9.21726 7.72188C9.21726 5.66563 9.21726 3.60938 9.21726 1.55313C9.21726 0.709375 8.83935 0.221875 8.02733 0.015625C8.01796 0.0125 8.00859 0.00625 7.99922 0H1.22194C1.05329 0.0625 0.872148 0.103125 0.715989 0.190625C0.359948 0.384375 0.141326 0.69375 0.0413843 1.08438C0.0288916 1.13125 0.0163989 1.175 0.00390625 1.21875V8C0.0288916 8.08438 0.0476306 8.17188 0.0757392 8.25313C0.260006 8.80937 0.778452 9.19687 1.36873 9.21562C1.59672 9.22188 1.82471 9.21562 2.07144 9.21562C2.07144 9.53125 2.07144 9.83125 2.07144 10.1313C2.07144 10.2875 2.06832 10.4438 2.07144 10.6C2.08081 10.9313 2.33067 11.1375 2.6586 11.0781C3.73922 10.8719 4.56373 10.3062 5.0978 9.3375C5.15401 9.24062 5.21335 9.21562 5.31642 9.21562C6.11595 9.21875 6.9186 9.21875 7.72126 9.21875C8.62073 9.21562 9.21413 8.62187 9.21726 7.72188Z" />
<path d="M14.6274 6.78379C14.3994 6.77129 14.1715 6.78067 13.9278 6.78067C13.9278 6.42754 13.9278 6.09004 13.9278 5.75567C13.9278 5.63692 13.931 5.51504 13.9278 5.39629C13.9154 5.06504 13.6686 4.85879 13.3407 4.92129C12.2632 5.12754 11.4356 5.69317 10.9015 6.66192C10.8515 6.75254 10.8016 6.78692 10.6985 6.78379C10.533 6.77442 10.3643 6.78379 10.1988 6.78379C10.1894 6.78379 10.18 6.79004 10.1551 6.80254C10.1551 7.13692 10.1613 7.48067 10.1551 7.82129C10.1363 8.60567 9.81151 9.23692 9.18375 9.70567C8.78711 9.99942 8.33737 10.1432 7.84391 10.1494C7.49724 10.1557 7.15057 10.1494 6.78516 10.1494C6.78516 10.2213 6.78516 10.2775 6.78516 10.3338C6.78516 11.7182 6.78516 13.1025 6.78516 14.49C6.78516 15.2807 7.19117 15.7932 7.96259 15.9744C7.97821 15.9775 7.9907 15.99 8.00319 15.9963H14.7805C14.946 15.9369 15.1209 15.8963 15.2739 15.815C15.6425 15.6182 15.8642 15.3025 15.9642 14.8963C15.9735 14.8557 15.986 14.8182 15.9985 14.7775V7.99942C15.9517 7.85567 15.9173 7.70567 15.8517 7.57442C15.5956 7.07754 15.1802 6.81504 14.6274 6.78379Z" />
<path d="M4.54109 13.2927C4.35995 13.1208 4.07574 13.1364 3.90396 13.3083C3.72594 13.4833 3.7197 13.7614 3.88835 13.9583C3.9227 13.9989 3.96018 14.0364 4.0164 14.0989C3.92895 14.0958 3.87585 14.0958 3.82588 14.0864C2.95764 13.9646 2.23931 13.5739 1.68339 12.8958C1.19305 12.2989 0.952567 11.6114 0.936951 10.8396C0.933828 10.5896 0.796408 10.4177 0.568417 10.3614C0.359165 10.3083 0.156159 10.4114 0.0406012 10.6271C0.0281085 10.6489 0.0124927 10.6677 0 10.6864V11.1864C0.0655866 11.4896 0.109311 11.8021 0.199883 12.0958C0.727699 13.7583 2.19247 14.9052 3.93519 15.0364C3.95393 15.0364 3.9758 15.0427 4.01952 15.0489C3.98204 15.0927 3.95706 15.1271 3.92895 15.1583C3.64474 15.4583 3.73219 15.8302 4.11634 15.9739C4.12883 15.9802 4.14132 15.9896 4.15382 15.9989H4.30997C4.39118 15.9521 4.48487 15.9208 4.54734 15.8583C4.87215 15.5427 5.19383 15.2239 5.50927 14.8989C5.68105 14.7208 5.69042 14.4521 5.52176 14.2739C5.2032 13.9396 4.87527 13.6114 4.54109 13.2927Z" />
<path d="M15.8788 4.25C15.4634 2.4375 13.9768 1.13437 12.1372 0.9625C12.0873 0.95625 12.0342 0.95 11.9623 0.940625C12.0029 0.89375 12.031 0.8625 12.0592 0.828125C12.3277 0.546875 12.259 0.196875 11.9061 0.028125C11.8936 0.021875 11.8811 0.009375 11.8718 0H11.6531C11.5782 0.04375 11.4907 0.078125 11.4314 0.1375C11.1097 0.45 10.7911 0.765625 10.482 1.0875C10.2977 1.27812 10.2977 1.54375 10.482 1.73438C10.7943 2.05625 11.1097 2.37188 11.4314 2.68438C11.625 2.87188 11.9124 2.8625 12.0904 2.67812C12.2653 2.5 12.2653 2.225 12.0966 2.02813C12.0623 1.99063 12.0279 1.95 11.9779 1.89688C12.9774 1.92813 13.9737 2.525 14.5358 3.40625C14.8763 3.94375 15.0387 4.53125 15.0543 5.1625C15.0636 5.49375 15.3478 5.70312 15.6508 5.61875C15.8413 5.56563 15.9256 5.4125 15.9975 5.24687V4.93437C15.9569 4.70625 15.9288 4.475 15.8788 4.25Z" />
<path d="M2.20745 2.58047V2.54297C2.62595 2.26172 3.02572 2.10547 3.36927 2.10547C3.79402 2.10547 4.14381 2.29609 4.43115 2.64922C4.64664 2.92109 4.75595 3.22109 4.75595 3.55859C4.75595 3.83984 4.66538 4.05234 4.49986 4.23359C4.63727 4.32422 4.73722 4.41797 4.82466 4.50859C4.94335 4.63359 5.13386 4.69297 5.40557 4.69297C5.68978 4.69297 5.9615 4.61797 6.19574 4.44922V2.69922H5.28377L5.05578 2.23672L5.09326 2.18359H7.4044L7.63239 2.64609L7.59492 2.69922H6.73292L6.75166 7.05859L6.70481 7.11172L6.177 6.96797L6.18324 5.20234C6.05519 5.23984 5.9209 5.25547 5.77099 5.25547C5.50552 5.25547 5.25879 5.18047 5.0589 5.02734L5.04953 5.03672C5.10263 5.18047 5.10575 5.33047 5.10575 5.50234C5.10575 6.16484 4.57793 6.62109 3.9127 6.62109C2.88518 6.62109 2.17309 5.77422 1.58594 4.60234V4.56797L1.87015 4.39297C2.40733 5.44609 3.0101 5.99922 3.66597 5.99922C4.13757 5.99922 4.61854 5.64297 4.61854 5.16484C4.61854 4.76172 4.3718 4.49297 3.93456 4.49297C3.70969 4.49297 3.41612 4.57734 3.05383 4.73672L2.68842 4.16484L2.69779 4.13047C3.16002 3.93984 3.56915 3.82734 3.90021 3.82734C4.13757 3.66172 4.28436 3.45234 4.28436 3.19297C4.28436 2.91172 4.047 2.69297 3.72219 2.69297C3.39738 2.69297 3.0101 2.84922 2.57598 3.13047L2.20745 2.58047Z" fill="#2D2D2D"/>
<path fill-rule="evenodd" clip-rule="evenodd" d="M12.0877 9.60156H11.3069L9.69531 13.8016H10.4542L10.8478 12.6891H12.5249L12.9184 13.8016H13.7055L12.0877 9.60156ZM12.3274 12.1344H11.0469L11.684 10.3281H11.6996L12.3274 12.1344Z" fill="#2D2D2D"/>
</svg>
