<svg width="10" height="10" viewBox="0 0 10 10" fill="none" xmlns="http://www.w3.org/2000/svg">
<path d="M5.75834 4.82617C5.75834 3.54102 5.75834 2.25586 5.75834 0.970703C5.75834 0.443359 5.52215 0.138672 5.01464 0.00976562C5.00878 0.0078125 5.00293 0.00390625 4.99707 0H0.761273C0.655866 0.0390625 0.542651 0.0644531 0.445052 0.119141C0.222526 0.240234 0.0858872 0.433594 0.0234238 0.677734C0.0156159 0.707031 0.00780792 0.734375 0 0.761719V5C0.0156158 5.05273 0.0273277 5.10742 0.0448956 5.1582C0.160062 5.50586 0.484091 5.74805 0.853016 5.75977C0.99551 5.76367 1.13801 5.75977 1.29221 5.75977C1.29221 5.95703 1.29221 6.14453 1.29221 6.33203C1.29221 6.42969 1.29026 6.52734 1.29221 6.625C1.29807 6.83203 1.45423 6.96094 1.65918 6.92383C2.33457 6.79492 2.84989 6.44141 3.18368 5.83594C3.21882 5.77539 3.2559 5.75977 3.32032 5.75977C3.82003 5.76172 4.32169 5.76172 4.82335 5.76172C5.38552 5.75977 5.75639 5.38867 5.75834 4.82617Z" fill="#2D2D2D"/>
<path d="M9.14361 4.24134C9.00112 4.23352 8.85862 4.23938 8.70637 4.23938C8.70637 4.01868 8.70637 3.80774 8.70637 3.59876C8.70637 3.52454 8.70832 3.44837 8.70637 3.37415C8.69856 3.16712 8.54435 3.03821 8.3394 3.07727C7.66596 3.20618 7.14869 3.5597 6.8149 4.16516C6.78367 4.22181 6.75244 4.24329 6.68802 4.24134C6.58456 4.23548 6.47916 4.24134 6.3757 4.24134C6.36985 4.24134 6.36399 4.24524 6.34838 4.25306C6.34838 4.46204 6.35228 4.67688 6.34838 4.88977C6.33666 5.38001 6.13366 5.77454 5.74131 6.06751C5.49341 6.2511 5.21232 6.34095 4.90391 6.34485C4.68724 6.34876 4.47057 6.34485 4.24219 6.34485C4.24219 6.38977 4.24219 6.42493 4.24219 6.46009C4.24219 7.32532 4.24219 8.19056 4.24219 9.05774C4.24219 9.55188 4.49595 9.8722 4.97808 9.98548C4.98784 9.98743 4.99565 9.99524 5.00346 9.99915H9.23926C9.34271 9.96204 9.45203 9.93665 9.54767 9.88587C9.77801 9.76282 9.9166 9.56556 9.97906 9.31165C9.98492 9.28626 9.99272 9.26282 10.0005 9.23743V5.0011C9.97125 4.91126 9.94978 4.81751 9.90879 4.73548C9.74873 4.42493 9.48911 4.26087 9.14361 4.24134Z" fill="#2D2D2D"/>
<path d="M2.83818 8.30939C2.72497 8.20197 2.54734 8.21173 2.43998 8.31915C2.32871 8.42853 2.32481 8.60236 2.43022 8.7254C2.45169 8.75079 2.47511 8.77423 2.51025 8.81329C2.45559 8.81134 2.42241 8.81134 2.39118 8.80548C1.84853 8.72931 1.39957 8.48517 1.05212 8.06134C0.745657 7.68829 0.595354 7.25861 0.585594 6.77618C0.583642 6.61993 0.497755 6.51251 0.355261 6.47736C0.224478 6.44415 0.0975991 6.50861 0.0253758 6.64337C0.0175678 6.65704 0.00780792 6.66876 0 6.68048V6.99298C0.0409916 7.18243 0.0683193 7.37775 0.124927 7.56134C0.454812 8.6004 1.37029 9.3172 2.4595 9.39923C2.47121 9.39923 2.48487 9.40314 2.5122 9.40704C2.48878 9.43439 2.47316 9.45587 2.45559 9.4754C2.27796 9.6629 2.33262 9.89532 2.57271 9.98517C2.58052 9.98907 2.58833 9.99493 2.59614 10.0008H2.69373C2.74449 9.9715 2.80305 9.95197 2.84208 9.9129C3.04509 9.71564 3.24614 9.51642 3.4433 9.31329C3.55065 9.20197 3.55651 9.034 3.4511 8.92267C3.252 8.71368 3.04704 8.50861 2.83818 8.30939Z" fill="#2D2D2D"/>
<path d="M9.92424 2.65625C9.66463 1.52344 8.73549 0.708984 7.58577 0.601562C7.55454 0.597656 7.52135 0.59375 7.47646 0.587891C7.50183 0.558594 7.5194 0.539062 7.53697 0.517578C7.70484 0.341797 7.6619 0.123047 7.44132 0.0175781C7.43351 0.0136719 7.42571 0.00585938 7.41985 0H7.28321C7.23636 0.0273438 7.18171 0.0488281 7.14462 0.0859375C6.94357 0.28125 6.74447 0.478516 6.55122 0.679688C6.43605 0.798828 6.43605 0.964844 6.55122 1.08398C6.74642 1.28516 6.94357 1.48242 7.14462 1.67773C7.26564 1.79492 7.44523 1.78906 7.55649 1.67383C7.6658 1.5625 7.6658 1.39062 7.56039 1.26758C7.53892 1.24414 7.51745 1.21875 7.48622 1.18555C8.11085 1.20508 8.73353 1.57812 9.08489 2.12891C9.29766 2.46484 9.39916 2.83203 9.40892 3.22656C9.41478 3.43359 9.59241 3.56445 9.78175 3.51172C9.90082 3.47852 9.95352 3.38281 9.99842 3.2793V3.08398C9.97304 2.94141 9.95547 2.79688 9.92424 2.65625Z" fill="#2D2D2D"/>
<path d="M1.38063 1.61328V1.58984C1.6422 1.41406 1.89205 1.31641 2.10677 1.31641C2.37224 1.31641 2.59086 1.43555 2.77044 1.65625C2.90513 1.82617 2.97345 2.01367 2.97345 2.22461C2.97345 2.40039 2.91684 2.5332 2.81339 2.64648C2.89927 2.70312 2.96174 2.76172 3.01639 2.81836C3.09057 2.89648 3.20964 2.93359 3.37946 2.93359C3.55709 2.93359 3.72691 2.88672 3.87331 2.78125V1.6875H3.30333L3.16084 1.39844L3.18426 1.36523H4.62873L4.77122 1.6543L4.7478 1.6875H4.20905L4.22076 4.41211L4.19148 4.44531L3.8616 4.35547L3.8655 3.25195C3.78547 3.27539 3.70154 3.28516 3.60784 3.28516C3.44192 3.28516 3.28772 3.23828 3.16279 3.14258L3.15693 3.14844C3.19012 3.23828 3.19207 3.33203 3.19207 3.43945C3.19207 3.85352 2.86219 4.13867 2.44641 4.13867C1.80421 4.13867 1.35916 3.60938 0.992188 2.87695V2.85547L1.16982 2.74609C1.50556 3.4043 1.88229 3.75 2.29221 3.75C2.58696 3.75 2.88756 3.52734 2.88756 3.22852C2.88756 2.97656 2.73335 2.80859 2.46008 2.80859C2.31953 2.80859 2.13605 2.86133 1.90962 2.96094L1.68124 2.60352L1.68709 2.58203C1.97599 2.46289 2.2317 2.39258 2.43861 2.39258C2.58696 2.28906 2.6787 2.1582 2.6787 1.99609C2.6787 1.82031 2.53035 1.68359 2.32734 1.68359C2.12434 1.68359 1.88229 1.78125 1.61097 1.95703L1.38063 1.61328Z" fill="white"/>
<path fill-rule="evenodd" clip-rule="evenodd" d="M7.55381 6H7.06582L6.05859 8.625H6.53293L6.77887 7.92969H7.82709L8.07304 8.625H8.56494L7.55381 6ZM7.70656 7.58203H6.90625L7.30445 6.45312H7.31421L7.70656 7.58203Z" fill="white"/>
</svg>
