<svg width="22" height="22" viewBox="0 0 22 22" fill="currentColor" xmlns="http://www.w3.org/2000/svg">
<path fill-rule="evenodd" clip-rule="evenodd" d="M10.9404 8.28561L9.49356 9.62168V9.62304C9.67922 10.2966 9.94666 10.9447 10.2898 11.5525C10.6451 12.1537 11.0691 12.711 11.5531 13.2131L13.4277 12.6197C14.4771 12.2874 15.6219 12.6291 16.3214 13.4833L17.3903 14.7895C18.2886 15.8866 18.1828 17.4977 17.1487 18.4664C15.4077 20.0984 12.7273 20.6524 10.719 19.0299C8.94892 17.594 7.45656 15.8427 6.31651 13.8634C4.94393 11.49 4.32175 9.21706 4.05182 7.43019C3.66582 4.87075 5.48918 2.82183 7.76062 2.12256C9.116 1.70541 10.5601 2.42083 11.0578 3.75599L11.6435 5.33104C12.0299 6.36801 11.7516 7.53712 10.9404 8.28561ZM8.15452 3.42123C6.32576 3.98336 5.12863 5.51767 5.38641 7.22578H5.38506C5.70555 9.32552 6.41712 11.3455 7.4824 13.1797C8.5391 15.0153 9.92258 16.6396 11.5637 17.9714C12.9025 19.0536 14.8271 18.7847 16.2267 17.4717C16.7382 16.9924 16.7922 16.194 16.3468 15.6509L15.2779 14.3461C14.9285 13.9185 14.356 13.7471 13.8311 13.9129L11.5732 14.6285C11.3469 14.7001 11.1 14.647 10.9226 14.4886L10.8686 14.4398C10.1833 13.7916 9.59419 13.0476 9.11951 12.2306C8.68375 11.4618 8.35282 10.6374 8.13562 9.7798L8.09379 9.60328L8.07759 9.53268C8.02974 9.29847 8.10762 9.05618 8.28273 8.89451L10.0292 7.28552C10.4346 6.91112 10.5734 6.32659 10.3801 5.80824L9.79298 4.2332C9.54572 3.56966 8.82812 3.21404 8.15452 3.42123Z" />
</svg>
